<?xml version="1.0" standalone="no"?>
<!DOCTYPE svg PUBLIC "-//W3C//DTD SVG 1.1//EN" "http://www.w3.org/Graphics/SVG/1.1/DTD/svg11.dtd" >
<svg xmlns="http://www.w3.org/2000/svg" xmlns:xlink="http://www.w3.org/1999/xlink" version="1.1">
<metadata></metadata>
<defs>
<font id="yatra_oneregular" horiz-adv-x="1345" >
<font-face units-per-em="2048" ascent="1638" descent="-410" />
<missing-glyph horiz-adv-x="716" />
<glyph unicode="&#xfb01;" horiz-adv-x="1292" d="M74 979h213v178q0 61 81 144t188.5 129.5t168.5 11.5q166 -96 246 -162q25 31 64.5 60.5t64.5 35.5q104 -47 153 -145q-35 -88 -151 -148q-104 49 -156 150q-109 37 -187.5 40t-120.5 -16.5t-65.5 -69.5t-29.5 -94t-8 -114h454v-2l252 -55v-981l-256 57v838h-450l10 -895 l-256 57q-2 362 -2 838h-152z" />
<glyph unicode="&#xfb02;" horiz-adv-x="1433" d="M133 979h213v178q0 92 156.5 199.5t271.5 97.5q59 -6 291 -63l256 -58v-1392l-256 57v1296q-98 23 -176 24t-127 -20.5t-84 -52.5t-52.5 -79t-23.5 -91t-8 -96h209l61 -143h-270l10 -895l-256 57q-2 362 -2 838h-151z" />
<glyph unicode="&#xfb03;" horiz-adv-x="1902" d="M47 979h213v178q0 59 77 126t179 98.5t170 4.5q29 -12 126 -57t136 -63q78 94 198 154.5t189 21.5q166 -96 246 -162q25 31 65 60.5t64 35.5q104 -47 154 -145q-35 -88 -152 -148q-104 49 -156 150q-109 37 -187.5 40t-120.5 -16.5t-65.5 -69.5t-29.5 -94t-8 -114h454v-2 l252 -55v-981l-256 57v838h-450l10 -895l-256 57q-2 362 -2 838h-389l10 -895l-256 57q-2 362 -2 838h-151zM508 979h389v178q0 8 4 29q-96 31 -166.5 36t-112.5 -10.5t-68 -52.5t-35 -79t-11 -101z" />
<glyph unicode="&#xfb04;" horiz-adv-x="2019" d="M47 979h213v178q0 59 77 126t179 98.5t170 4.5q25 -10 70 -30.5t108.5 -50t98.5 -45.5q66 80 182.5 140t197.5 54q60 -6 291 -63l256 -58v-1392l-256 57v1296q-98 23 -176 24t-127 -20.5t-84 -52.5t-52 -79t-23.5 -91t-8.5 -96h209l62 -143h-271l11 -895l-256 57 q-2 362 -3 838h-407l10 -895l-256 57q-2 362 -2 838h-151zM508 979h407v178q0 8 5 25q-125 41 -209 43t-126 -34t-58.5 -86t-18.5 -126z" />
<glyph horiz-adv-x="0" />
<glyph horiz-adv-x="682" />
<glyph horiz-adv-x="0" />
<glyph horiz-adv-x="0" />
<glyph unicode="&#xd;" horiz-adv-x="681" />
<glyph unicode=" "  horiz-adv-x="716" />
<glyph unicode="&#x09;" horiz-adv-x="716" />
<glyph unicode="&#xa0;" horiz-adv-x="716" />
<glyph unicode="!" horiz-adv-x="552" d="M135 104q4 33 61.5 84.5t92.5 59.5q104 -47 153 -146q-34 -88 -151 -147q-104 49 -156 149zM182 1454l258 -57l-65 -1039l-182 39z" />
<glyph unicode="&#x22;" horiz-adv-x="991" d="M119 1184q0 39 7 236.5t-3 242.5q6 20 59.5 10t118 -34.5t74.5 -36.5q14 -240 -150 -428zM580 1184q0 39 7 236.5t-3 242.5q6 20 59 10t117.5 -34.5t75.5 -36.5q14 -240 -150 -428z" />
<glyph unicode="#" horiz-adv-x="1632" d="M70 522h370v357h-207l-163 184h370v391l236 -57v-334h289v391l235 -57v-334h197l164 -184h-361v-357h197l164 -184h-361v-397l-235 57v340h-289v-397l-236 57v340h-207zM676 522h289v357h-289v-357z" />
<glyph unicode="$" horiz-adv-x="1275" d="M201 381l51 76q39 -23 96.5 -44.5t150.5 -40t176 -10t164 66.5t124 169q4 10 -39 2q-23 -4 -95 -18q-322 -72 -399 -37q-10 4 -16 8q-63 47 -132 126t-81 128q-23 96 34.5 179t145.5 129t184 65v303l201 -84l2 -250q119 -51 258 -141l-55 -82q-92 37 -177 52t-168 8 t-143.5 -60.5t-85.5 -151.5q4 -8 49.5 -5t124 10t155.5 14.5t141.5 5.5t82.5 -17q96 -82 139.5 -172t32 -166.5t-57.5 -142t-125 -107.5t-173 -53l4 -321l-205 59v279q-49 14 -104 43.5t-82 48t-97.5 71t-80.5 60.5z" />
<glyph unicode="%" horiz-adv-x="1751" d="M5 1101.5q3 63.5 28.5 128t74 112t102.5 80t117.5 34.5t118.5 -22l41 -23q164 -72 313.5 -83t258 26t192.5 110l209 -67l-897 -1458l-229 63l762 1215q-182 -37 -396 49q61 -63 73.5 -156.5t-20 -176.5t-96 -150.5t-155.5 -80t-197 38.5q-80 43 -164 107 q-70 53 -104.5 121.5t-31.5 132zM213 1049.5q-10 -119.5 78 -191.5q96 -57 190 29t103.5 204.5t-76.5 194.5q-90 59 -187.5 -29t-107.5 -207.5zM966 348.5q3 63.5 28.5 128t73.5 111.5t102.5 79.5t118 35t118.5 -22.5q145 -73 231 -145q61 -49 86 -125t10.5 -151t-52 -147.5 t-102 -114.5t-142.5 -51t-172 42q-80 43 -164 106q-70 53 -104.5 122t-31.5 132.5zM1173.5 296q-10.5 -120 77.5 -192q96 -57 190.5 29t103.5 204.5t-77 194.5q-90 59 -187 -28.5t-107.5 -207.5z" />
<glyph unicode="&#x26;" horiz-adv-x="1390" d="M143 309q-74 100 82 246q49 45 205 166q-201 201 -229 250q-33 51 23.5 149.5t164 179t205.5 80.5q49 0 220 -139t204 -235q31 -84 -283 -377l156 -146q119 129 213 262l196 -190q-90 -137 -202 -262q168 -156 276 -248l-125 -104l-258 241q-102 -96 -196.5 -156.5 t-181.5 -79t-144 30.5q-199 154 -326 332zM381 235.5q4 -16.5 14 -32.5q27 -43 87.5 -30t137 65.5t166.5 138.5l-161 151q-20 -16 -52 -42.5t-49.5 -42t-43 -38t-39 -37t-29 -34t-21.5 -34.5t-10 -31.5t0 -33zM464 939.5q15 -55.5 64 -110.5q2 -4 15 -16q328 283 196 361 q-33 20 -72.5 15t-82.5 -21.5t-74 -53.5t-46 -78t0 -96.5z" />
<glyph unicode="'" horiz-adv-x="321" d="M119 1184q0 39 7 236.5t-3 242.5q6 20 59.5 10t118 -34.5t74.5 -36.5q14 -240 -150 -428z" />
<glyph unicode="(" horiz-adv-x="1073" d="M127.5 627.5q24.5 197.5 120.5 398.5t246.5 377t302.5 264l174 -190q-106 -84 -213 -195t-205 -264.5t-144.5 -302t-5.5 -308t189 -284.5q90 -76 334 -238l-66 -78q-10 6 -182 117t-293 204t-182 173q-100 129 -75.5 326.5z" />
<glyph unicode=")" horiz-adv-x="1001" d="M102 -86q213 219 267 285q272 328 237 624q-23 172 -141 348q-33 49 -80 112t-126 149t-142 127l55 104q104 -74 321.5 -304.5t319.5 -381.5q55 -82 63.5 -186.5t-25.5 -214t-92.5 -225t-140 -229.5t-167 -212t-175.5 -186z" />
<glyph unicode="*" horiz-adv-x="751" d="M82 1120l194 137l-167 121l53 52l170 -111l-4 223l104 -16v-158l121 86l137 -113l-182 -133l182 -116l-67 -82l-189 135l2 -252l-94 25l-4 165l-113 -82z" />
<glyph unicode="+" horiz-adv-x="1228" d="M70 733h407v434l236 -57v-377h325l62 -149h-387v-455l-236 57v398h-346z" />
<glyph unicode="," horiz-adv-x="538" d="M135 104q4 33 61.5 84.5t92.5 59.5q55 -27 105 -77t48 -91q-12 -76 -71.5 -203t-104.5 -178l-84 55q51 164 45 238q-63 55 -92 112z" />
<glyph unicode="-" horiz-adv-x="970" d="M61 733h785l63 -166h-784z" />
<glyph unicode="." horiz-adv-x="485" d="M135 104q4 33 61.5 84.5t92.5 59.5q104 -47 153 -146q-34 -88 -151 -147q-104 49 -156 149z" />
<glyph unicode="/" horiz-adv-x="892" d="M61 0l549 1462l262 -84l-544 -1437z" />
<glyph unicode="0" horiz-adv-x="1255" d="M94 712.5q43 190.5 131 357.5t227.5 249t276.5 29q29 -12 73 -27.5t62.5 -24t46 -20.5t49 -27.5t48.5 -38.5q90 -74 134 -205t41 -274t-49.5 -290.5t-123 -263.5t-193.5 -182.5t-248 -53.5q-139 14 -284 116q-137 96 -185.5 280.5t-5.5 375zM354 547q-39 -297 68 -404 q20 -23 49 -32q90 -35 182 51t151.5 238.5t92.5 316.5t8.5 299t-106.5 170q-141 61 -277 -154q-129 -203 -168 -485z" />
<glyph unicode="1" horiz-adv-x="806" d="M47 973l389 383l56 -19l198 -57l4 -1339l-252 47v1097l-192 -188z" />
<glyph unicode="2" horiz-adv-x="1175" d="M61 205q352 264 441 354q182 184 229 250q121 166 25 274q-35 39 -91.5 40t-108.5 -22.5t-115.5 -66.5t-98.5 -72.5t-70 -60.5l-166 207q37 45 138.5 115.5t225.5 120t198 -10.5q178 -150 325 -332q45 -57 48 -125.5t-33.5 -140t-91 -143.5t-133 -143.5t-151.5 -130 t-153 -113.5h471l185 -205h-889z" />
<glyph unicode="3" horiz-adv-x="1163" d="M59 328l86 57q170 -207 385 -192q152 10 238 120q88 117 18 242q-18 33 -49 63q-125 -53 -276 -59l-105 191q276 16 373 155q63 94 10 180q-57 92 -186 78q-127 -12 -266 -129l-142 183q6 4 21 12q66 41 111 63.5t122.5 53t144 24.5t115.5 -47q128 -109 302 -322 q63 -88 23 -178t-161 -161q170 -137 205 -175q94 -98 -11.5 -259.5t-291.5 -225t-385 38.5q-145 98 -281 287z" />
<glyph unicode="4" horiz-adv-x="1171" d="M31 553l317 651l268 -76l-264 -575h420v811l283 -84l4 -1339l-287 59v348h-557z" />
<glyph unicode="5" horiz-adv-x="1253" d="M72 330l43 90q6 -4 67.5 -55.5t112.5 -87t146.5 -70.5t195.5 -35q74 0 133 34t91 85t52.5 108.5t16.5 102.5t-15 67q-20 29 -130.5 -6t-227.5 -71.5t-147 -10.5q-45 37 -81 78t-80 100.5t-63 81.5q-6 6 -7 46t1 107t4 126t5.5 141t5.5 117l4 -2l-2 4h669l185 -205h-590 q-37 -258 -27 -325q39 -4 131 13t167 29.5t87 2.5q254 -213 328 -326q18 -29 20 -91.5t-21.5 -137t-68.5 -143t-135 -113.5t-207 -45q-111 0 -228.5 50t-206.5 121.5t-146 128t-82 91.5z" />
<glyph unicode="6" horiz-adv-x="1120" d="M90 410.5q-10 101.5 23.5 232.5t103.5 265t195.5 261t287.5 207l218 -182q-301 -127 -459 -418q203 35 250 0q236 -182 280 -239q74 -94 42 -208t-108.5 -209t-183 -143.5t-180.5 -13.5q-250 119 -414 297q-45 49 -55 150.5zM351.5 321.5q13.5 -102.5 68.5 -139.5 q100 -70 242 35q115 86 153 203q45 133 -67 174q-117 43 -377 -39q-33 -131 -19.5 -233.5z" />
<glyph unicode="7" horiz-adv-x="1093" d="M20 1266h828l184 -205l-409 -1120l-287 59l383 1061h-514z" />
<glyph unicode="8" horiz-adv-x="1114" d="M133 188q-86 139 2 295t277 234q-250 158 -275 235q-14 43 14.5 114t86 141.5t157 118.5t209.5 42q35 -2 183.5 -139.5t183.5 -188.5q55 -80 -7.5 -174t-238.5 -217q92 -59 184 -143t113 -117q20 -25 13 -70t-24.5 -97t-58.5 -107.5t-89 -99.5t-118.5 -69.5t-146.5 -21.5 q-41 2 -240.5 112.5t-224.5 151.5zM325.5 216.5q12.5 -68.5 92.5 -107.5q33 -14 83 -12.5t97 27.5t92 58.5t67.5 81.5t24.5 98.5t-36.5 106.5t-118.5 106q-82 -31 -157 -92t-116 -129.5t-28.5 -137zM377 1024q-43 -131 94 -225l39 -23q125 78 206 186.5t9 176.5 q-90 86 -215 28q-100 -47 -133 -143z" />
<glyph unicode="9" horiz-adv-x="1101" d="M74.5 990q31.5 114 108.5 209t183.5 143.5t180.5 13.5q250 -119 414 -297q45 -49 55 -150.5t-24 -232.5t-103.5 -265.5t-195 -261t-287.5 -206.5l-218 182q297 123 459 418q-201 -39 -250 0q-236 182 -280 239q-74 94 -42.5 208zM289 895q-43 -131 69 -172 q119 -41 377 41q33 129 18.5 231.5t-67.5 141.5q-100 68 -242 -37q-117 -86 -155 -205z" />
<glyph unicode=":" horiz-adv-x="503" d="M135 104q4 33 61.5 84.5t92.5 59.5q104 -47 153 -146q-34 -88 -151 -147q-104 49 -156 149zM135 838q4 33 61.5 84t92.5 59q104 -47 153 -145q-34 -89 -151 -148q-104 49 -156 150z" />
<glyph unicode=";" horiz-adv-x="626" d="M135 104q4 33 61.5 84.5t92.5 59.5q55 -27 105 -77t48 -91q-12 -76 -71.5 -203t-104.5 -178l-84 55q51 164 45 238q-63 55 -92 112zM135 838q4 33 61.5 84t92.5 59q104 -47 153 -145q-34 -89 -151 -148q-104 49 -156 150z" />
<glyph unicode="&#x3c;" horiz-adv-x="1021" d="M88 698l653 494l199 -127l-543 -418l465 -362l-112 -131z" />
<glyph unicode="=" horiz-adv-x="1376" d="M242 592h866l61 -150h-866zM242 922h866l61 -150h-866z" />
<glyph unicode="&#x3e;" horiz-adv-x="1021" d="M88 1065l199 127l653 -494l-661 -544l-113 131l465 362z" />
<glyph unicode="?" horiz-adv-x="972" d="M59 1284q68 90 229 142.5t240 3.5q98 -59 220 -194.5t143 -193.5q10 -27 9 -58.5t-8 -61t-24.5 -66.5t-36 -67.5t-48 -71.5t-53 -70t-61.5 -72t-61.5 -68.5t-62.5 -67.5t-58 -62l-192 166l6 6q23 23 42 41t64.5 64t79 88t76.5 97.5t68.5 104.5t43 99.5t11.5 92.5t-37 72 q-55 49 -139 40t-165 -49t-126 -87zM334 104q4 33 61.5 84.5t91.5 59.5q104 -47 154 -146q-35 -88 -152 -147q-104 49 -155 149z" />
<glyph unicode="@" horiz-adv-x="2158" d="M131 635q16 131 79.5 260t161 233.5t221.5 182.5t252 115.5t259 24.5t237 -83q55 -37 142.5 -92t126.5 -81t94 -64.5t94 -71.5t76 -70q213 -213 156 -518q-41 -215 -185 -358q-129 -129 -233 -90q-18 6 -35 18q-76 55 -143 156q-55 -72 -136 -126.5t-178.5 -77 t-179.5 29.5q-98 59 -266 194q-57 47 -74.5 124t3 161t67.5 171t117.5 155.5t152.5 115.5t174 48t180 -46q16 -10 52 -28.5t53.5 -28.5t44 -28.5t51.5 -39t49 -47.5q29 -29 9.5 -219t-7.5 -207q57 -74 131 -4q84 80 99 242q20 252 -170 442q-25 25 -52 47q-246 201 -553 119 q-252 -66 -421 -279q-186 -233 -156 -493q37 -328 418 -537q6 -4 10 -6q104 -66 240.5 -51.5t236.5 121.5l230 -195q-82 -109 -230.5 -146.5t-275.5 -16t-191 68.5q-121 92 -290 234.5t-238 211.5q-119 119 -169 258.5t-34 270.5zM827.5 297q16.5 -61 69.5 -98 q84 -59 236.5 24.5t185.5 151.5q27 127 30 262t-24 164q-51 33 -113.5 28.5t-123 -44.5t-115.5 -95t-92 -126.5t-53.5 -138.5t0 -128z" />
<glyph unicode="A" d="M20 0l496 1364l283 -84l-2 -6l549 -1333l-265 59l-143 375l-483 -33l-148 -401zM520 520l352 25l-176 459z" />
<glyph unicode="B" horiz-adv-x="1421" d="M143 61v1309q170 47 413 51q24 0 47 1q201 0 245 -33q63 -41 170.5 -143.5t169.5 -174.5q27 -42 26 -104q0 -65 -45 -149q-45 -83 -120 -140q166 -96 270 -215q28 -33 28 -89q1 -14 -1 -28q-8 -76 -63.5 -158t-167 -145t-280.5 -81q-42 -4 -88 -4q-140 0 -317 40z M426 1180l2 -461q158 0 272.5 40t168 98t77.5 124q19 51 19 93q1 13 -1 26q-8 53 -30 78q-39 41 -124 52q-36 5 -74 5q-52 0 -108 -9q-96 -15 -202 -46zM428 616l2 -510q68 -7 129 -7q268 0 406 132q86 82 86 181q0 29 -7 59q-20 90 -102 145q-106 -45 -234 -45t-280 45z " />
<glyph unicode="C" horiz-adv-x="1445" d="M106 656q-2 24 -1 49q-1 70 13 143q18 98 66.5 184t109 164t138.5 132t158 90q76 34 156 34h9q85 -2 160 -33q307 -141 484 -229l-101 -111q-162 86 -299 146q-49 21 -101 21q-64 0 -132 -32q-124 -58 -210 -182q-85 -124 -132 -272q-24 -76 -24 -154q0 -72 21 -146 q44 -152 183 -243q74 -49 155 -57q17 -2 34 -1q65 -1 127 23q80 30 141 67.5t135 92.5l248 -182q-109 -92 -235 -147.5t-268 -65.5q-17 -1 -34 -1q-123 0 -229 64q-203 119 -389 289q-84 78 -130.5 170.5t-52.5 186.5z" />
<glyph unicode="D" horiz-adv-x="1568" d="M143 61v1303l2 -2v2q89 29 363 33q23 0 45 1q236 0 311 -40q215 -150 563 -549q20 -25 33 -95q7 -35 7 -78q-1 -41 -7 -89q-12 -98 -49 -198.5t-129 -195t-225 -145.5q-120 -42 -289 -42h-8q-174 1 -330 36h-2zM426 1151l4 -1026q44 -6 87 -6q94 -1 183 27 q129 40 221.5 120t156.5 186q62 106 82 212q8 45 9 89q1 60 -15 117q-26 100 -105 166q-72 59 -151 92t-170 38q-51 3 -91 3q-31 0 -57 -2q-58 -4 -154 -16z" />
<glyph unicode="E" horiz-adv-x="1294" d="M143 59v1307h875l164 -184h-756v-394h510l164 -184h-672v-420h672l164 -184h-854l-4 4z" />
<glyph unicode="F" horiz-adv-x="1191" d="M143 0v1364l2 -2l-2 4h875l164 -184h-756v-455h510l164 -184h-672l2 -602z" />
<glyph unicode="G" horiz-adv-x="1665" d="M110 637q-5 42 -5 84q0 58 9 117q15 102 62 190t108.5 168t140.5 133t160 89q77 34 158 34h9q86 -2 161 -33q367 -168 478 -223l-88 -109q-31 14 -289 117q-62 26 -119 26q-25 0 -49 -6q-78 -16 -153 -62t-128 -123.5t-94 -165t-52 -185.5q-5 -49 -5 -95.5t5 -90.5 q11 -88 60 -166t131 -125q70 -41 142.5 -41t136 29.5t124 79t112 102.5t96.5 102q14 16 20 25h-319l-164 184h477l283 -84q4 -453 4 -512q0 -162 33.5 -227.5t140.5 -95.5q-46 -12 -91 -12q-98 0 -189 58q-132 85 -142 242l-6 93q-74 -63 -133.5 -103.5t-136.5 -70.5 q-62 -25 -127 -25q-15 0 -30 1q-81 7 -165 54q-242 137 -350 236q-94 88 -149.5 190.5t-66.5 200.5z" />
<glyph unicode="H" horiz-adv-x="1519" d="M143 0v1364l283 -82l2 -573l662 36v619l286 -82v-1341l-286 59v571l-662 -36l2 -594z" />
<glyph unicode="I" horiz-adv-x="593" d="M143 0v1364l303 -84l5 -1339z" />
<glyph unicode="J" horiz-adv-x="722" d="M-358 -215l51 37q133 -47 239 -49h13q98 0 161 29q66 32 110 92.5t61.5 129t17.5 146.5v1196l285 -84v-1251q0 -76 -63.5 -173.5t-184.5 -174t-254 -76.5q-227 0 -436 178z" />
<glyph unicode="K" horiz-adv-x="1392" d="M143 260l7 8v1096l282 -84l2 -653l584 737l266 -59l-448 -566l536 -798l-266 59l-389 590l-283 -354l2 -295l-286 59v258z" />
<glyph unicode="L" horiz-adv-x="1243" d="M143 59v1307l283 -84l2 -1098h631l164 -184h-793z" />
<glyph unicode="M" horiz-adv-x="1783" d="M143 0v1364l283 -82l430 -1042l498 1124l282 -82l4 -1341l-286 59v690l-338 -749l-266 59l2 4l-2 -2l-324 805l4 -866z" />
<glyph unicode="N" horiz-adv-x="1519" d="M143 0v1364l283 -82l664 -928v1010l286 -82v-1341l-286 59l-664 938l4 -997z" />
<glyph unicode="O" horiz-adv-x="1644" d="M103 690q3 106 36 216t91.5 207t138.5 174t169 121t191 44t201 -53q266 -144 456 -328q78 -75 117 -179q38 -101 38 -206v-6q-1 -108 -34.5 -218t-92 -205t-140.5 -170t-176 -114q-81 -33 -174 -33h-31q-111 6 -217 68q-16 10 -58.5 32.5t-59.5 32t-52 31t-58.5 39 t-57.5 43t-68.5 56t-73.5 69.5q-76 73 -112 173q-33 93 -33 190v16zM426 803q-36 -117 -36 -220q0 -123 52 -225q47 -94 140 -149q93 -56 184 -56q112 0 221 85q162 125 232 358q32 108 32 204q0 132 -61 238q-45 82 -123 133q-97 64 -194 64q-106 0 -211 -78 q-162 -123 -236 -354z" />
<glyph unicode="P" horiz-adv-x="1329" d="M143 0v1370q186 52 417 68q66 5 118 5q130 0 172 -30q61 -55 192.5 -186t182.5 -191q21 -25 21 -74q0 -23 -4 -50q-14 -87 -72 -182t-160 -176q-102 -80 -248 -106q-46 -8 -97 -9q-109 0 -237 38l2 -536zM426 1227l2 -654q38 -4 74 -5q103 0 188 35q115 46 174.5 126 t89.5 171q25 76 24 142q0 14 -1 27q-6 78 -39 115q-66 74 -241 74q-113 0 -271 -31z" />
<glyph unicode="Q" horiz-adv-x="1644" d="M103 690q3 107 36 216.5t91.5 206.5t138.5 174t169 121t191 44t201 -53q266 -144 456 -328q125 -123 146 -309q6 -47 6 -92q0 -137 -50 -264q-65 -168 -199 -301.5t-296 -157.5q-4 -41 -4 -62q0 -16 -2 -47q-4 -54 -4 -98q0 -106 21 -150q36 -74 146 -74q14 0 30 1 q-71 -26 -135 -26q-36 0 -71 9q-95 23 -158 105q-60 79 -60 181v7q0 78 10 174q-35 12 -90 41q-16 10 -58.5 32.5t-59.5 32t-52 31t-58.5 39t-57.5 43t-68.5 56t-73.5 69.5q-76 72 -112 173q-33 92 -33 190v16zM399 686q139 47 187 47h4q33 -2 96.5 -45t116.5 -88 t115.5 -101.5t72.5 -64.5q33 -28 33 -141v-25q121 113 182 287q41 114 41 229q0 60 -11 120q-32 175 -169 267q-102 61 -197 61q-53 0 -103 -19q-140 -54 -240.5 -201.5t-127.5 -325.5zM408 444q45 -160 174 -235q89 -54 181 -54q10 0 19 1q4 65 4 119q0 69 -7 119 q-13 89 -70 128q-37 23 -87 29q-10 1 -21 1q-42 0 -93 -20q-62 -24 -100 -88z" />
<glyph unicode="R" horiz-adv-x="1390" d="M143 0v1370q186 52 417 68q66 5 118 4q130 0 172 -29q61 -55 192.5 -186t182.5 -191q24 -30 24 -76q1 -56 -35 -137q-64 -147 -221 -243q217 -92 236 -113q27 -39 38 -89t11 -85t-4 -98.5t-4 -85.5q0 -20 -3 -62.5t-3 -63t6 -52t20.5 -50t43 -39t73.5 -35.5 q-45 -9 -86 -9q-105 0 -183 62q-108 86 -118 249q0 12 -3 75.5t-6 92t-11.5 74.5t-22.5 75q-18 35 -94 100q-112 -41 -241 -41q-101 0 -214 25l2 -569zM426 1214l2 -573h12q136 0 247 42q116 44 177.5 112.5t93.5 144.5q27 64 28 121q0 11 -1 21q-6 66 -43 100 q-70 67 -233 67q-117 0 -283 -35z" />
<glyph unicode="S" horiz-adv-x="1486" d="M72 381l61 31q119 -63 191.5 -98t183 -71t194.5 -38h15q185 0 305 95q141 112 141 269q0 7 -27 8q-36 0 -120 -13q-150 -24 -302 -42q-43 -5 -79 -5q-94 0 -150 34q-82 66 -256 258q-55 67 -57 145v6q0 75 51 152q53 80 131 143.5t183.5 104.5t210.5 41q27 0 100.5 -34 t203.5 -101.5t171 -87.5l-27 -99q-86 33 -167 53.5t-183 23.5h-19q-89 0 -159 -26q-78 -28 -142 -109q-85 -108 -84 -213q0 -15 76 -16q33 0 80 4q160 10 312 21q43 3 78 4q89 0 130 -22q203 -180 285 -334q14 -26 14 -60q0 -63 -49 -153q-96 -174 -278 -256 q-118 -54 -244 -54q-218 0 -461 162q-156 104 -313 277z" />
<glyph unicode="T" horiz-adv-x="1325" d="M0 1366h1161l164 -184h-494l5 -1241l-287 59v1182h-385z" />
<glyph unicode="U" horiz-adv-x="1476" d="M133 714.5v148.5t1 147.5t1 136t1 113t1 75.5v31q0 -2 71 -22.5t140 -40.5l72 -21q-4 -457 -4 -713q0 -320 6 -327q84 -90 216 -94h12q125 0 237 69q117 72 162 184v965l284 -84v-958q0 -117 -180 -251t-383 -134q-121 0 -299 122.5t-328 288.5q-2 2 -4 33t-3 80 t-2 114.5t-1 137z" />
<glyph unicode="V" horiz-adv-x="1325" d="M0 1364l285 -59l381 -955l372 1014l308 -59l-496 -1364l-303 84l2 4z" />
<glyph unicode="W" horiz-adv-x="2269" d="M0 1364l285 -59l377 -943l335 1002l308 -59l376 -943l336 1002l307 -59l-454 -1364l-303 84l2 4l-383 923l-336 -1011l-303 84l2 4z" />
<glyph unicode="X" horiz-adv-x="1454" d="M61 0l527 707l-502 659l276 -59l343 -445l374 502l287 -59l-494 -662l541 -702l-287 59l-370 487l-410 -546z" />
<glyph unicode="Y" horiz-adv-x="1210" d="M0 1366l256 -59l352 -555l336 612l285 -59l-443 -805l5 -559l-287 59v563z" />
<glyph unicode="Z" horiz-adv-x="1710" d="M106 1366h1229l164 -184l-938 -998h869l163 -184h-1261l-162 180l-4 2l2 2l919 998h-817z" />
<glyph unicode="[" horiz-adv-x="948" d="M174 184v1266l2 -2l-2 4h404l163 -184h-305l4 -1084h219l164 -184h-485z" />
<glyph unicode="\" horiz-adv-x="1228" d="M186 1454l267 -82l626 -1431l-266 59z" />
<glyph unicode="]" horiz-adv-x="1067" d="M174 1452h485l164 -184v-1266h-2l2 -2h-403l-164 184h305l-4 1084h-219z" />
<glyph unicode="^" horiz-adv-x="864" d="M53 1409l439 420l378 -500l-67 -82l-266 387l-326 -385z" />
<glyph unicode="_" horiz-adv-x="1267" d="M70 150h1091l62 -150h-1092z" />
<glyph unicode="`" horiz-adv-x="692" d="M332 1384q-27 20 38.5 108.5t92.5 84.5q55 -78 152 -199t130 -168l-47 -84q-164 86 -366 258z" />
<glyph unicode="a" horiz-adv-x="1138" d="M92 389q0 63 86 116.5t210 83t220.5 46t163.5 22.5l2 56q2 98 -104 106h-13q-104 0 -401 -88h-2l-2 -2h-2h-2l-2 -2h-2h-2l-2 -2h-2h-2l-3 -2h-2h-2h-2l-2 -2h-2h-2l-2 -2h-2l-111 186q142 37 318 70q165 31 215 31h6q45 -2 180.5 -134.5t182.5 -201.5q16 -25 16 -165 q0 -141 -5 -321q-4 -129 -4 -197q0 -28 1 -46l-254 59l2 104q-165 -165 -269 -165h-1q-98 2 -250 186t-152 264zM319 205q17 -29 69 -37q9 -1 21 -1q51 1 135 29q104 36 224 126l2 180q-464 -135 -464 -257q0 -20 13 -40z" />
<glyph unicode="b" horiz-adv-x="1245" d="M129 106v1346l256 -57v-518q104 95 175 113q22 6 48 6q57 0 133 -29q129 -51 285 -197q80 -74 108 -172q17 -59 18 -118q0 -38 -8 -76q-18 -96 -72 -189.5t-130 -160t-172 -99.5q-61 -21 -120 -21q-34 0 -68 7q-262 51 -453 165zM385 86q49 -9 94 -9q201 0 328 171 q111 144 111 328v6q-2 166 -95 211q-28 15 -61 15q-118 0 -289 -194q-43 -47 -88 -106v-422z" />
<glyph unicode="c" horiz-adv-x="1095" d="M96 450q-1 20 -2 38q0 118 50 222q58 120 173 205.5t250 85.5h1q65 0 409 -161l-74 -107q-31 10 -71.5 25.5t-63.5 22.5t-49.5 15.5t-44 11.5t-31.5 3q-133 -6 -225 -172q-72 -130 -72 -262q0 -30 4 -60q18 -162 144 -180q14 -2 29 -2q140 0 360 170l39 -45 q41 -45 79 -92l39 -45q-80 -59 -140 -96t-124 -61q-61 -23 -119 -22h-5q-60 1 -124 25q-176 68 -331 238q-91 103 -101 243z" />
<glyph unicode="d" horiz-adv-x="1202" d="M94 368q-1 13 -1 26q-1 84 23 170q26 100 85 182.5t125.5 146t140.5 91.5q44 17 82 17q26 0 49 -8q27 -8 56.5 -23.5t49 -27.5t55.5 -36.5t52 -35.5v584l256 -57q6 -691 6 -1040t-6 -355q-10 -2 -105.5 -23.5t-121.5 -25.5q-27 -5 -110 -13q-42 -4 -74.5 -4t-56.5 4 q-48 8 -119.5 28t-137.5 57q-117 63 -180.5 155t-67.5 188zM330 263q12 -120 90 -159q54 -28 116 -28q123 0 275 108v576q-59 35 -166 47q-7 1 -13 1q-77 0 -151 -86q-80 -93 -121 -216q-32 -96 -32 -190q-1 -27 2 -53z" />
<glyph unicode="e" horiz-adv-x="1132" d="M98 450q-3 32 -3 62q0 104 39 198q50 120 155.5 205.5t230.5 85.5q82 0 243 -105t267 -206q-2 -6 -162.5 -126t-322.5 -236l-160 -117q57 -70 129 -86q22 -5 45 -5q51 0 105 24q78 36 132 72t126 95l41 -41q39 -43 77 -86l41 -41q-178 -131 -301 -175q-61 -22 -121 -22 q-61 0 -122 23q-176 68 -332 238q-93 103 -107 243zM338 408l465 317q-117 75 -206 75q-23 0 -45 -6q-104 -24 -159 -127t-55 -259z" />
<glyph unicode="f" horiz-adv-x="815" d="M47 979h213v178q0 61 81 144t189 129q61 27 107 27q35 0 61 -15q123 -68 228 -162l-45 -55q-104 57 -175 60h-8q-65 0 -107 -48q-44 -51 -62.5 -115.5t-20.5 -142.5h209l61 -143h-270l10 -895l-256 57q-2 362 -2 838h-151z" />
<glyph unicode="g" horiz-adv-x="1214" d="M117 -274q-4 6 2 17t22.5 27.5t36 35t52 50t61.5 60.5q-23 33 -160 250q-4 14 -6 22.5t11.5 15.5t27.5 12t41.5 11t53.5 10.5t63.5 13.5t70.5 19q-37 23 -141 113q-63 53 -96 115.5t-33 119t18.5 113.5t57.5 102.5t83 84t96 58t97 26.5q11 1 21 1q34 0 65 -16 q139 -68 197 -102h364l62 -144h-279q72 -127 72 -233q0 -253 -404 -391q-45 -14 -120 -37q-97 -31 -97 -41q4 -9 34 -9q66 0 256 40q213 45 273 45q19 0 23 -4q88 -86 114 -181q12 -42 12 -81q0 -48 -18 -91q-32 -77 -95.5 -142t-153.5 -101.5t-183 -36.5q-156 0 -312 91 t-189 157zM254 -274q117 -52 232 -52q32 0 64 4q146 19 254 92q105 71 105 149q0 6 -7 6q-22 0 -112 -33q-120 -44 -243 -76q-52 -14 -93 -14q-59 0 -98 26l-10 10zM362 572q-5 -25 -5 -47q0 -92 71 -158q35 -24 75 -24q55 0 119 45q109 79 132 197q5 23 5 45q0 92 -79 169 q-37 27 -77 27q-54 0 -115 -48q-105 -84 -126 -206z" />
<glyph unicode="h" horiz-adv-x="1222" d="M129 -2v1456l256 -57v-570q180 173 315 172h15q66 -4 230.5 -162.5t174.5 -215.5q8 -53 8 -680l-254 57q4 248 4 413q0 303 -14 330q-28 51 -79 51q-21 0 -47 -8q-87 -30 -180 -107t-173 -173v-563z" />
<glyph unicode="i" horiz-adv-x="565" d="M129 1253q4 33 61.5 84.5t92.5 59.5q104 -47 153 -146q-34 -88 -151 -147q-104 49 -156 149zM152 -2v981l256 -57v-981z" />
<glyph unicode="j" horiz-adv-x="516" d="M-360 -344l36 74q115 -51 198 -51h12q87 4 143.5 57t82 117.5t25.5 130.5l2 995l256 -57v-1076q0 -61 -75.5 -143t-179.5 -137q-84 -44 -145 -44q-16 0 -30 3q-49 10 -325 131zM115 1253q4 33 61 84.5t92 59.5q104 -47 154 -146q-35 -88 -152 -147q-104 49 -155 149z" />
<glyph unicode="k" horiz-adv-x="1157" d="M129 -2v1456l256 -57v-781l387 365l236 -57l-375 -353l432 -538l-143 -94l-400 528l-137 -129v-397z" />
<glyph unicode="l" horiz-adv-x="493" d="M129 -2v1456l256 -57v-1456z" />
<glyph unicode="m" horiz-adv-x="1812" d="M129 -2v981l256 -57v-56q137 133 255 133h13q39 -2 127 -72.5t168 -156.5q185 229 343 230q7 0 14 -1q66 -4 230.5 -162.5t174.5 -215.5q8 -53 8 -680l-254 57q4 249 4 415q0 304 -14 330q-25 45 -71 47q-3 0 -7 1q-43 0 -93 -31q-54 -33 -109.5 -83t-110.5 -114 q4 -113 4 -622l-254 57q4 249 4 415q0 304 -14 330q-31 45 -77 47q-3 0 -5 1q-45 0 -103 -38q-62 -40 -120 -96.5t-113 -126.5v-589z" />
<glyph unicode="n" horiz-adv-x="1222" d="M129 -2v981l266 -57v-84q173 161 306 161h14q66 -4 230.5 -162.5t174.5 -215.5q8 -53 8 -680l-254 57q4 248 4 413q0 303 -14 330q-27 50 -78 50q-20 1 -44 -7q-85 -28 -176 -100t-171 -168v-575z" />
<glyph unicode="o" horiz-adv-x="1208" d="M93 506q3 90 35 180t92.5 155.5t131.5 111.5q72 47 155 49h10q77 0 151 -35q198 -105 317 -211q59 -53 92 -128t38 -153q1 -16 1 -32q0 -61 -16 -125q-20 -80 -58 -150t-96 -124t-128 -82q-56 -23 -124 -23q-15 -1 -31 1q-85 6 -174 54q-115 61 -225 156q-88 76 -131 171 q-40 89 -40 173v12zM338 471q-13 -55 -12 -102q0 -121 82 -191q14 -12 30 -22q53 -29 108 -29q30 1 61 9q87 24 151.5 108t101.5 179q25 63 25 129q-1 34 -7 66q-18 100 -98 154q-58 40 -118 40q-79 0 -162 -69q-121 -102 -162 -272z" />
<glyph unicode="p" horiz-adv-x="1183" d="M106 -463q-3 681 -3 1029t3 362q129 37 206 52t176 20q15 1 30 1q82 0 157 -25q89 -30 183 -91q123 -82 180 -193q51 -99 51 -195q0 -12 -1 -25q-7 -107 -55 -212.5t-121.5 -180.5t-160.5 -111q-58 -25 -112 -25q-26 0 -51 6q-47 12 -119 51t-107 63v-583zM358 170 q37 -25 94 -33q14 -2 28 -2q48 0 109 21q79 26 136 100q53 72 85 152.5t35 152.5v23q0 59 -13 114q-15 64 -58 104t-100 54q-19 5 -42 5q-42 0 -96 -17q-81 -27 -174 -94z" />
<glyph unicode="q" horiz-adv-x="1236" d="M90 383q-9 44 -9 86q0 81 30 157q45 117 122.5 213.5t190.5 137.5q56 21 110.5 21t106.5 -21q242 -92 463 -225v-1264l-256 57v518q-104 -94 -175 -113q-22 -5 -48 -5q-57 0 -133 28q-129 51 -285 197q-94 86 -117 213zM303 369q8 -162 103 -217q36 -21 77 -21 q109 0 254 150q56 57 111 131v360q-96 30 -176 30q-166 0 -269 -124q-101 -119 -101 -282q0 -13 1 -27z" />
<glyph unicode="r" horiz-adv-x="1009" d="M131 -2v981l256 -57v-152q150 236 254 236q51 0 172 -52.5t203 -107.5l-142 -205q-127 93 -220 103q-16 2 -31 2q-72 0 -117 -38q-55 -46 -119 -149v-618z" />
<glyph unicode="s" horiz-adv-x="1064" d="M41 240l37 69q138 -104 294 -140q56 -13 110 -13q94 0 180 40q134 64 180 234q2 8 -19 6q-23 -2 -112 -26q-202 -54 -300 -54q-40 0 -63 9l-18 10q-113 86 -183 188q-43 59 -43 123q0 12 2 24q10 78 52.5 143t128.5 106.5t188 41.5q31 0 87 -12t159.5 -42t130.5 -36 l-23 -110q-169 38 -240 38q-13 0 -22 -1q-99 -12 -157 -98q-44 -66 -45 -126q0 -18 4 -36q2 -8 21 -8q23 0 73 12q91 22 197 46q63 14 99 13q25 0 38 -6q141 -74 190 -195q28 -69 28 -133q-1 -49 -17 -97q-38 -110 -154.5 -189.5t-280.5 -79.5q-135 0 -250.5 74.5 t-271.5 224.5z" />
<glyph unicode="t" horiz-adv-x="866" d="M20 979h168v221l252 -57v-164h250l62 -143h-312v-261v-67q0 -54 -1 -110v-13q1 -48 7 -92q8 -49 17.5 -90t34.5 -65q24 -26 59 -34q11 -3 23 -2q28 0 66 14q54 20 124 64l55 -63q-119 -109 -198 -152q-26 -15 -61 -15q-46 0 -108 26q-108 46 -189 129t-81 145v586h-106z " />
<glyph unicode="u" horiz-adv-x="1202" d="M94 977l254 -57q-3 -235 -3 -396q0 -323 13 -352q30 -42 83 -42q19 0 41 6q83 20 184.5 116t150.5 211v514l256 -57v-981l-256 57v102q-154 -158 -286 -158q-9 0 -17 1q-66 4 -233.5 151.5t-178.5 204.5q-8 53 -8 680z" />
<glyph unicode="v" horiz-adv-x="1060" d="M16 979l256 -57l263 -637l270 694l256 -57l-381 -981h-2l-254 57h-2z" />
<glyph unicode="w" horiz-adv-x="1779" d="M16 979l256 -57l256 -621l236 678l256 -57l256 -621l235 678l256 -57l-340 -981h-2l-256 57l-256 616l-233 -673h-2l-254 57h-2z" />
<glyph unicode="x" horiz-adv-x="1026" d="M47 979l256 -57l193 -267l217 324l256 -57l-320 -476l371 -505l-256 57l-217 295l-236 -352l-256 57l338 506z" />
<glyph unicode="y" horiz-adv-x="1134" d="M119 983l254 -57q-4 -224 -4 -381q0 -340 18 -367q32 -38 77 -38q42 0 96 33q112 69 196 212v594l256 -57v-1049q0 -121 -104.5 -225.5t-230.5 -148.5q-74 -26 -129 -26q-38 0 -67 13q-27 12 -81 43t-135 79t-122 73l54 79q123 -72 163 -92q72 -35 137 -35q72 0 136 42 q123 81 123 319v76q-137 -129 -244 -129h-12q-66 4 -212.5 150.5t-156.5 205.5q-12 82 -12 686z" />
<glyph unicode="z" horiz-adv-x="1001" d="M20 979h834l61 -150h-10l10 -2l-348 -442l258 -123q106 -52 131 -156q8 -35 9 -71q0 -71 -33 -143q-49 -110 -132 -208q-84 -98 -196 -153q-87 -43 -166 -43q-23 0 -45 4q-63 10 -173.5 81t-194.5 155l47 49q68 -45 114 -66q77 -27 144 -27q40 0 76 10q98 26 164 102 q64 77 98 164q29 76 30 146q0 11 -1 21q-5 80 -52 113q-76 51 -344 157h-2l-14 6l331 426h-534z" />
<glyph unicode="{" horiz-adv-x="1009" d="M154 760q0 6 36.5 36.5t75.5 77t39 89.5q0 213 26.5 429t51.5 232q53 35 139 62.5t146 37.5l59 11l152 -172q-123 -31 -224 -80q-29 -12 -48 -37t-31.5 -68t-20.5 -75.5t-10 -97t-3 -96.5t0 -108.5t1 -101.5q0 -45 -34 -75.5t-70 -45t-36 -18.5q0 -2 34 -17.5t70 -47 t36 -74.5q0 -45 -9.5 -229.5t-2 -284t43.5 -127.5q41 -33 98.5 -35t94.5 10l37 14l98 -84q-29 -12 -75 -30.5t-138 -42t-125 -7.5q-135 70 -254 179q-25 23 -21.5 132t15.5 228t0 234q-6 41 -78.5 110.5t-72.5 71.5z" />
<glyph unicode="|" horiz-adv-x="563" d="M156 -111v1682l254 -115v-1681z" />
<glyph unicode="}" horiz-adv-x="1282" d="M152 1618q29 12 74.5 30.5t138 42t124.5 7.5q135 -70 254 -178q25 -23 22 -132.5t-15.5 -228.5t0.5 -233q6 -41 78.5 -111t72.5 -72q0 -6 -37 -36.5t-75.5 -76.5t-38.5 -89q0 -213 -27 -429t-51 -233q-53 -35 -139.5 -62.5t-145.5 -37.5l-59 -10l-152 172q123 31 223 79 q29 12 48.5 37t32 68t20.5 75.5t10 97t3 96.5t0 109t-1 101q0 45 34 76t69.5 45t35.5 18q0 2 -33.5 17.5t-69.5 47.5t-36 75q0 45 9 229t2 283.5t-44 128.5q-41 33 -98 35t-94 -11l-37 -14z" />
<glyph unicode="~" horiz-adv-x="1200" d="M68 664q282 243 348 243q43 0 103.5 -70.5t109.5 -140t65 -69.5q31 0 105.5 55t134.5 113l57 55l152 -186q-31 -27 -77 -66t-146.5 -104.5t-145.5 -65.5q-37 0 -98.5 63.5t-111.5 126t-62 62.5q-29 0 -93.5 -50t-115.5 -102l-51 -49z" />
<glyph unicode="&#xa1;" horiz-adv-x="870" d="M334 967q34 88 151 147q104 -49 156 -149q-4 -33 -61.5 -84.5t-92.5 -59.5q-104 47 -153 146zM336 -328l65 1039l183 -39l10 -1057z" />
<glyph unicode="&#xa2;" horiz-adv-x="1116" d="M95.5 449.5q-9.5 140.5 49 261t173 205.5t249.5 85q25 0 113 -49l135 328l135 -145l-110 -279q75 -48 147 -111l-67 -96q-10 8 -33 25q-203 150 -250 155h-8q-80 -2 -161 -86t-126 -193.5t-22.5 -230t133.5 -188.5q68 -41 179 15.5t206 158.5l39 -39q39 -41 77 -82 l37 -41q-63 -55 -104 -87.5t-89 -62.5t-87 -39t-85 -6t-98 21q-53 23 -61 29l-121 -303l-143 151l108 252q-61 49 -114 109q-92 102 -101.5 242.5z" />
<glyph unicode="&#xa3;" horiz-adv-x="1478" d="M106 129q0 25 74 112t90 72q68 -63 156 -125l61 377q-53 2 -127 10l-73 132q100 -23 219 -29l24 156q20 123 109.5 238.5t181.5 170.5t131 33q61 -39 125 -93.5t125.5 -113.5t69.5 -68q35 -41 33 -103t-54.5 -142t-136.5 -135q-98 -68 -354 -68l-80 -483q264 -72 520 67 l227 -127q-145 -72 -229 -98.5t-170 -26.5q-33 0 -169 47t-189 70q-4 0 -109.5 -52t-161.5 -48q-78 4 -185.5 84t-107.5 143zM782 690q141 20 209 70q68 47 100.5 113.5t30.5 120t-30 77.5q-72 61 -170 -37t-127 -274z" />
<glyph unicode="&#xa4;" horiz-adv-x="1228" d="M117 1057l73 76l199 -199q150 127 291 57q74 -39 90 -49l231 217l138 -112l-215 -213q86 -94 74.5 -228.5t-101.5 -234.5l195 -170l-68 -82l-190 194q-139 -94 -295 -14q-31 14 -58 31l-211 -209l-143 119l211 198q-59 63 -75.5 142t3 152t64.5 136zM446.5 607 q-10.5 -120 77.5 -191q96 -57 190.5 28.5t103.5 204.5t-77 195q-90 59 -187 -29t-107.5 -208z" />
<glyph unicode="&#xa5;" horiz-adv-x="1259" d="M0 1366l256 -59l352 -555l336 612l266 -59l-366 -666h192l62 -150h-332v-116h291l61 -150h-350l2 -282l-266 59v223h-252l-62 150h314v116h-273l-61 150h285z" />
<glyph unicode="&#xa6;" horiz-adv-x="563" d="M156 -111v729l254 -114v-729zM156 842v729l254 -115v-729z" />
<glyph unicode="&#xa7;" horiz-adv-x="1083" d="M263.5 577q-23.5 99 9 185t100 155.5t149.5 90.5q-186 115 -200 159q-6 35 -8.5 80t23 94.5t62.5 89t108 63.5t161 19q43 -4 202 -137l-47 -57q-115 80 -227 24q-92 -43 -100 -133q-4 -121 161 -211l23 -8l20 -12h2q127 -66 209 -133q70 -59 85.5 -154.5t-16.5 -183.5 t-103.5 -157.5t-161.5 -84.5q150 -94 162 -133q6 -35 8 -80t-23.5 -94t-62.5 -89t-107.5 -63.5t-161.5 -19.5q-25 2 -90 38t-127 87l35 47q106 -74 210 -23.5t104 155t-121 206.5l-2 2q-84 43 -164 107q-88 72 -111.5 171zM446.5 607.5q-10.5 -119.5 77.5 -191.5 q96 -57 190.5 28.5t103.5 204.5t-77 195q-90 59 -187 -29t-107.5 -207.5z" />
<glyph unicode="&#xa8;" horiz-adv-x="698" d="M37 1260q2 29 52 73.5t81 50.5q94 -43 131 -127q-27 -74 -131 -127q-86 39 -133 130zM399 1260q2 29 52.5 73.5t80.5 50.5q94 -43 132 -127q-28 -74 -132 -127q-86 39 -133 130z" />
<glyph unicode="&#xa9;" horiz-adv-x="1806" d="M160 730q2 101 34.5 206.5t92 199t143.5 167t178 115.5t204 42t214 -51q160 -76 258.5 -137.5t202.5 -151.5q84 -72 126 -171t41 -202.5t-36 -210t-98.5 -198.5t-151.5 -164t-188.5 -109.5t-219 -31.5t-235.5 63q-131 63 -196.5 106.5t-209.5 166.5q-82 70 -121.5 165 t-37.5 196zM411.5 519q53.5 -167 213.5 -259q106 -61 215.5 -70.5t201 25.5t169 101.5t130 154.5t76 189.5t13 197.5t-67 187.5t-152.5 154.5q-182 106 -352 87t-281.5 -152.5t-165 -291t0 -324.5zM559 693.5q-6 97.5 35 181t121 143t172 59.5q48 1 284 -112l-45 -68 q-172 61 -196 61q-55 -2 -111.5 -60t-87.5 -134t-15.5 -160t91.5 -131q45 -29 134 9t171 102l27 -29q27 -29 53 -59l25 -29q-74 -57 -126.5 -85t-115 -38t-115.5 16q-121 43 -229 164q-66 72 -72 169.5z" />
<glyph unicode="&#xaa;" horiz-adv-x="915" d="M174 1081q4 78 46 152t106.5 135.5t144.5 75.5t160 -27q12 -6 33.5 -18.5t34 -19.5t29.5 -18t32.5 -24.5t32.5 -29.5q35 -39 -2 -328q-4 -45 3 -104.5t21 -79.5l-180 34q-14 27 -21 70q-33 -43 -59.5 -63.5t-71.5 -27.5t-98 23q-111 53 -174 125q-41 47 -37 125z M321.5 1010q-0.5 -53 36.5 -80q55 -33 154.5 61t112.5 172q27 139 -13 168q-31 23 -81 -4t-94 -81t-79.5 -118.5t-36 -117.5z" />
<glyph unicode="&#xab;" horiz-adv-x="1382" d="M20 584l445 417l188 -139l-372 -325l358 -293l-96 -107zM627 584l444 417l189 -139l-373 -325l358 -293l-96 -107z" />
<glyph unicode="&#xac;" horiz-adv-x="1159" d="M61 733h928l64 -166l-201 -327l-213 79l143 248h-657z" />
<glyph unicode="&#xad;" horiz-adv-x="970" d="M61 733h785l63 -166h-784z" />
<glyph unicode="&#xae;" horiz-adv-x="933" d="M34.5 1020.5q-14.5 95.5 24.5 181.5t109 161t165 95.5t193 -18.5q164 -78 260 -162q76 -63 91.5 -159.5t-24.5 -183.5t-113.5 -160t-175 -88t-210.5 32q-74 33 -111.5 56.5t-121.5 90.5q-72 59 -86.5 154.5zM190.5 942q24.5 -90 106.5 -137q90 -45 178 -27.5t150.5 88 t95.5 153.5t11.5 170t-101.5 136q-94 53 -186.5 39t-155 -88t-93 -159t-6 -175zM285 913v314q57 16 128.5 22t90.5 -6q2 -2 31.5 -24.5t52 -42t30.5 -31.5q16 -14 1 -50t-54 -61l72 -131l-100 21l-45 82q-53 -6 -109 4v-121zM383 1051q66 -4 107.5 19.5t44.5 53t-9 47.5 q-33 27 -143 0v-120z" />
<glyph unicode="&#xaf;" horiz-adv-x="772" d="M74 1231h594l47 -119h-596z" />
<glyph unicode="&#xb0;" horiz-adv-x="948" d="M261 1175.5q13 65.5 48 128t90.5 99.5t114.5 51t121 -18q131 -66 207 -129q59 -51 74.5 -133t-12 -159t-84 -141.5t-137.5 -79t-173 26.5q-78 39 -145 94q-66 53 -91.5 124t-12.5 136.5zM429 1095.5q-9 -106.5 69 -171.5q86 -51 170 25.5t91 182t-69 173.5 q-82 53 -167 -25t-94 -184.5z" />
<glyph unicode="&#xb1;" horiz-adv-x="1228" d="M70 901h407v434l236 -57v-377h325l62 -149h-387v-455l-236 57v398h-346zM88 197h928l63 -166h-927z" />
<glyph unicode="&#xb2;" horiz-adv-x="671" d="M20 1300q43 49 166 127t168 39q121 -102 201 -198q72 -88 -143 -267l-99 -79h219l119 -127h-495l-119 127q166 121 242 180q184 145 118 219q-33 35 -133 -32.5t-131 -114.5z" />
<glyph unicode="&#xb3;" horiz-adv-x="593" d="M20 997l54 33q84 -133 211 -123q88 8 121 74q27 55 -17 104q-68 -35 -160 -36l-61 116q86 8 143.5 38t66.5 65t-13 67q-35 41 -95.5 4.5t-146.5 -122.5l-96 118q16 16 39.5 35t60.5 44.5t71.5 38.5t71.5 17.5t62 -18.5q103 -84 166 -172q20 -29 5.5 -76t-61.5 -86 q78 -45 103 -65q61 -49 -2 -142q-68 -94 -183 -120q-111 -27 -192 38q-80 63 -148 168z" />
<glyph unicode="&#xb4;" horiz-adv-x="544" d="M295 1210q33 47 130 168t153 199q27 4 92 -84t39 -109q-203 -172 -367 -258z" />
<glyph unicode="&#xb5;" horiz-adv-x="1271" d="M74 -522q70 27 89 96.5t19 192.5v677l-2 525q0 -2 2 -2v2l236 -58v-704q4 -41 6 -43q41 -57 129 -37t194.5 116.5t155.5 211.5v514l236 -58v-981l-236 58v102q-164 -168 -303 -158q-51 2 -182 109v-330q0 -262 -344 -233z" />
<glyph unicode="&#xb6;" horiz-adv-x="1417" d="M96 864q-27 76 27.5 168t173.5 169t271.5 127t346 43t373.5 -85l4 -1345l-266 59v1237q-111 6 -190 4l4 -1300l-267 59v477q-76 -2 -141 15.5t-92 44.5q-188 168 -244 327z" />
<glyph unicode="&#xb7;" horiz-adv-x="485" d="M135 580q4 33 61.5 84t92.5 59q104 -47 153 -145q-34 -89 -151 -148q-104 49 -156 150z" />
<glyph unicode="&#xb8;" horiz-adv-x="616" d="M168 -430l22 37q12 -2 39 -6t37 -5.5t31.5 0t48.5 7.5q43 8 71.5 69.5t-1.5 85.5q-6 4 -48 6.5t-81 2.5h-41l61 346l166 -39l-67 -240q16 2 39.5 7t37 8.5t31.5 5.5t28.5 3t20.5 0t17.5 -5.5t11.5 -10.5q20 -31 24.5 -85t-8 -109.5t-50.5 -99.5t-97 -50q-18 -2 -54 1 t-105 21.5t-134 49.5z" />
<glyph unicode="&#xb9;" horiz-adv-x="382" d="M18 1284l191 176l147 -41v-643l-147 29v475l-53 -53z" />
<glyph unicode="&#xba;" horiz-adv-x="925" d="M259 1135.5q5 54.5 27.5 111t60.5 99.5t81 73.5t91 34.5t89 -16q142 -78 197 -127q51 -45 62.5 -123t-16.5 -152.5t-79 -139.5t-126 -81t-157 21q-74 39 -139 92q-51 41 -73.5 97t-17.5 110.5zM414.5 1096.5q-11.5 -103.5 62.5 -160.5q49 -23 97.5 -5.5t82 69t52 108.5 t7.5 114.5t-54 86.5q-72 51 -154 -29t-93.5 -183.5z" />
<glyph unicode="&#xbb;" horiz-adv-x="1382" d="M123 862l188 139l445 -417l-523 -447l-96 107l359 293zM729 862l189 139l444 -417l-522 -447l-97 107l359 293z" />
<glyph unicode="&#xbc;" horiz-adv-x="1701" d="M20 1192l267 270l202 -59l5 -782l-207 45v573l-97 -106zM328 2l841 1458l189 -67l-846 -1454zM1006 326v2h2l206 342l187 -45l-176 -297h237v454l207 -59l2 -784l-209 47v184h-311l-143 156h-2z" />
<glyph unicode="&#xbd;" horiz-adv-x="1875" d="M20 1192l267 270l202 -59l5 -782l-207 45v573l-97 -106zM328 2l841 1458l189 -67l-846 -1454zM1067 631q51 59 205.5 156.5t212.5 50.5q160 -142 250 -248q88 -109 -179 -334q-31 -27 -124 -100h274l149 -158h-620l-148 158q207 152 302 225q231 184 149 274 q-29 31 -103.5 -5t-140 -91t-86.5 -88z" />
<glyph unicode="&#xbe;" horiz-adv-x="1722" d="M41 915l65 37q98 -156 246 -145q100 6 146 80q43 68 -15 133q-88 -43 -190 -45l-74 141q102 8 172 44t80 78t-16 81q-41 47 -113 4t-178 -145l-115 141q25 25 63 54.5t98 65.5t109.5 41t94.5 -22q126 -101 202 -205q25 -33 6.5 -89t-75.5 -103q94 -57 125 -82 q72 -57 2 -162q-70 -102 -199 -145q-147 -47 -256 41q-90 70 -178 202zM348 2l842 1458l188 -67l-846 -1454zM1026 326v2h2l207 342l186 -45l-176 -297h238v454l207 -59l2 -784l-209 47v184h-312l-143 156h-2z" />
<glyph unicode="&#xbf;" horiz-adv-x="811" d="M116 -52q1 32 8 61.5t24.5 66.5t36 67.5t48 71.5t53 69.5t61.5 71.5t61.5 69t62.5 68t57 62l193 -166l-6 -6q-23 -23 -42.5 -41t-64.5 -64.5t-78.5 -88.5t-76.5 -97t-69 -104t-43 -99.5t-11 -92.5t37 -72q55 -49 139 -40t165 49t126 87l159 -172q-68 -90 -228.5 -142.5 t-240.5 -3.5q-98 59 -220 194.5t-142 192.5q-10 27 -9 59zM375 829q34 89 151 148q104 -49 156 -150q-4 -33 -61.5 -84t-92.5 -59q-104 47 -153 145z" />
<glyph unicode="&#xc0;" d="M20 0l496 1364l283 -84l-2 -6l549 -1333l-265 59l-143 375l-483 -33l-148 -401zM338 1714q-27 20 38.5 108.5t92.5 84.5q55 -78 152.5 -199t130.5 -168l-47 -84q-164 86 -367 258zM520 520l352 25l-176 459z" />
<glyph unicode="&#xc1;" d="M20 0l496 1364l283 -84l-2 -6l549 -1333l-265 59l-143 375l-483 -33l-148 -401zM469 1536q33 47 130 168t153 199q27 4 92 -84t39 -109q-203 -172 -367 -258zM520 520l352 25l-176 459z" />
<glyph unicode="&#xc2;" d="M20 0l496 1364l283 -84l-2 -6l549 -1333l-265 59l-143 375l-483 -33l-148 -401zM283 1544q0 8 187 167t196 157q14 -4 184 -143.5t168 -149.5q0 -10 -74 -70.5t-82 -56.5q-12 0 -67.5 53t-114.5 113.5t-62 62.5q-2 -2 -118.5 -111.5t-126.5 -113.5q-12 2 -50 43t-40 49z M520 520l352 25l-176 459z" />
<glyph unicode="&#xc3;" d="M20 0l496 1364l283 -84l-2 -6l549 -1333l-265 59l-143 375l-483 -33l-148 -401zM195 1653q4 16 122.5 97t155.5 77q29 -4 127 -96.5t119 -92.5q27 0 108.5 91.5t85.5 91.5q10 -2 80 -75t72 -83q2 -8 -45 -56t-116.5 -96.5t-115.5 -48.5q-31 0 -137 90t-119 90 q-37 -2 -116.5 -88t-85.5 -88q-14 4 -74.5 87t-60.5 100zM520 520l352 25l-176 459z" />
<glyph unicode="&#xc4;" d="M20 0l496 1364l283 -84l-2 -6l549 -1333l-265 59l-143 375l-483 -33l-148 -401zM334 1585q2 29 52 74t81 51q94 -43 131 -127q-27 -74 -131 -127q-86 39 -133 129zM520 520l352 25l-176 459zM696 1585q2 29 52.5 74t80.5 51q94 -43 132 -127q-28 -74 -132 -127 q-86 39 -133 129z" />
<glyph unicode="&#xc5;" d="M20 0l496 1364l283 -84l-2 -6l549 -1333l-265 59l-143 375l-483 -33l-148 -401zM399.5 1659.5q-16.5 66.5 7 123t65.5 105.5t98.5 61.5t109.5 -10.5q99 -51 156 -96q45 -39 56 -100.5t-9.5 -119.5t-62.5 -106.5t-104.5 -59.5t-131.5 20q-68 35 -109 69 q-59 47 -75.5 113.5zM520 520l352 25l-176 459zM532.5 1685.5q-4.5 -69.5 55.5 -112.5q37 -16 71.5 -5t58 45t36 72.5t1.5 78t-44 59.5q-57 35 -115.5 -16.5t-63 -121z" />
<glyph unicode="&#xc6;" horiz-adv-x="2107" d="M47 0l907 1364h2v2h875l164 -184h-756v-394h510l164 -184h-672v-420h672l164 -184h-854l-4 4l-263 55v336l-352 -22l-291 -432zM727 555l229 14v326z" />
<glyph unicode="&#xc7;" horiz-adv-x="1470" d="M147.5 656.5q-6.5 93.5 12 191.5t66.5 184t108.5 164t138.5 132t158 90t165 34t160 -33q307 -141 484 -229l-101 -111q-162 86 -299 146q-109 47 -232.5 -10.5t-209.5 -182.5t-133 -272.5t-3 -299t183 -243.5q74 -49 155 -57t160.5 22.5t141 67.5t135.5 92l248 -182 q-129 -109 -287 -169t-305 -40l-33 -117q16 2 40 7t37 8.5t31.5 5.5t29 3t20.5 0t17 -5.5t12 -10.5q20 -31 24 -85t-8 -109.5t-50 -99.5t-98 -50q-18 -2 -54 1t-104.5 21.5t-133.5 49.5l22 37q12 -2 39 -6t37 -5.5t31.5 0t48.5 7.5q43 8 71.5 69.5t-2.5 85.5q-6 4 -48 6.5 t-81 2.5h-41l41 231l-22 12q-203 119 -389 289q-84 78 -130 171t-52.5 186.5z" />
<glyph unicode="&#xc8;" horiz-adv-x="1325" d="M174 59v1307h875l163 -184h-755v-394h510l163 -184h-671v-420h671l164 -184h-854l-4 4zM338 1714q-27 20 38.5 108.5t92.5 84.5q55 -78 152.5 -199t130.5 -168l-47 -84q-164 86 -367 258z" />
<glyph unicode="&#xc9;" horiz-adv-x="1325" d="M174 59v1307h875l163 -184h-755v-394h510l163 -184h-671v-420h671l164 -184h-854l-4 4zM541 1536q33 47 130 168t152 199q27 4 92.5 -84t38.5 -109q-202 -172 -366 -258z" />
<glyph unicode="&#xca;" horiz-adv-x="1325" d="M174 59v1307h875l163 -184h-755v-394h510l163 -184h-671v-420h671l164 -184h-854l-4 4zM287 1550q0 8 187.5 167t195.5 157q14 -4 184 -143.5t168 -149.5q0 -10 -74 -70.5t-82 -56.5q-12 0 -67.5 53.5t-114.5 113.5t-61 62q-2 -2 -119 -111.5t-127 -113.5q-12 2 -50 43 t-40 49z" />
<glyph unicode="&#xcb;" horiz-adv-x="1325" d="M174 59v1307h875l163 -184h-755v-394h510l163 -184h-671v-420h671l164 -184h-854l-4 4zM348 1585q2 29 52.5 74t80.5 51q94 -43 131 -127q-27 -74 -131 -127q-86 39 -133 129zM711 1585q2 29 52 74t81 51q94 -43 131 -127q-27 -74 -131 -127q-86 39 -133 129z" />
<glyph unicode="&#xcc;" horiz-adv-x="614" d="M51 1706q-27 20 39 108.5t92 83.5q55 -78 152.5 -198.5t130.5 -167.5l-47 -84q-164 86 -367 258zM174 0v1364l303 -84l4 -1339z" />
<glyph unicode="&#xcd;" horiz-adv-x="614" d="M139 1536q33 47 130.5 168t152.5 199q27 4 92.5 -84t38.5 -109q-203 -172 -367 -258zM174 0v1364l303 -84l4 -1339z" />
<glyph unicode="&#xce;" horiz-adv-x="614" d="M-61 1546q0 8 187 167t196 157q14 -4 184 -143.5t168 -149.5q0 -10 -74 -70.5t-82 -56.5q-12 0 -67.5 53t-115 113.5t-61.5 62.5q-2 -2 -118.5 -111.5t-126.5 -113.5q-12 2 -50 43t-40 49zM174 0v1364l303 -84l4 -1339z" />
<glyph unicode="&#xcf;" horiz-adv-x="614" d="M-16 1585q2 29 52 74t81 51q94 -43 131 -127q-27 -74 -131 -127q-86 39 -133 129zM174 0v1364l303 -84l4 -1339zM346 1585q2 29 52.5 74t80.5 51q94 -43 131 -127q-27 -74 -131 -127q-86 39 -133 129z" />
<glyph unicode="&#xd0;" horiz-adv-x="1656" d="M-47 688l221 39v637l2 -2v2q88 29 362.5 33t356.5 -39q215 -150 563 -549q20 -25 32.5 -94.5t0.5 -167.5t-49 -198.5t-129 -195t-226 -145.5q-123 -43 -297 -42t-329 36h-2l-285 59v523l-78 -15zM457 1151l2 -375l92 17l137 -113l-229 -43l2 -512q141 -18 270 21.5 t221 119.5t155.5 185.5t83 212t-7 207t-104.5 165.5q-72 59 -150.5 92t-169.5 38t-148.5 1t-153.5 -16z" />
<glyph unicode="&#xd1;" horiz-adv-x="1560" d="M174 0v1364l283 -82l663 -928v1010l287 -82v-1341l-287 59l-663 938l4 -997zM326 1640q4 16 122.5 97.5t155.5 77.5q29 -4 127 -96.5t119 -92.5q27 0 108.5 91t85.5 91q10 -2 80 -74.5t72 -82.5q2 -8 -45 -56.5t-116.5 -96.5t-114.5 -48q-31 0 -137.5 90t-118.5 90 q-37 -2 -117 -88t-86 -88q-14 4 -74.5 87t-60.5 99z" />
<glyph unicode="&#xd2;" horiz-adv-x="1685" d="M124 690.5q3 106.5 36 216t91 206.5t138 174t169 121t191.5 44t200.5 -53q267 -144 457 -328q78 -76 117 -179.5t38 -211t-35 -218t-92.5 -205.5t-140.5 -170t-176 -114t-204.5 -32.5t-217.5 67.5q-16 10 -58 32.5t-59.5 32t-52 31t-58.5 39t-57.5 43t-68.5 56t-74 69.5 q-76 72 -111.5 172.5t-32.5 207zM446 803q-80 -258 17 -445q47 -94 139 -149q207 -125 406 29q162 125 231 358q76 258 -29 442q-45 82 -123 133q-205 135 -405 -14q-162 -123 -236 -354zM666 1769q-27 20 38.5 108.5t92.5 84.5q55 -78 152 -199t130 -168l-47 -84 q-164 86 -366 258z" />
<glyph unicode="&#xd3;" horiz-adv-x="1685" d="M124 690.5q3 106.5 36 216t91 206.5t138 174t169 121t191.5 44t200.5 -53q267 -144 457 -328q78 -76 117 -179.5t38 -211t-35 -218t-92.5 -205.5t-140.5 -170t-176 -114t-204.5 -32.5t-217.5 67.5q-16 10 -58 32.5t-59.5 32t-52 31t-58.5 39t-57.5 43t-68.5 56t-74 69.5 q-76 72 -111.5 172.5t-32.5 207zM446 803q-80 -258 17 -445q47 -94 139 -149q207 -125 406 29q162 125 231 358q76 258 -29 442q-45 82 -123 133q-205 135 -405 -14q-162 -123 -236 -354zM905 1608q33 47 130.5 167.5t152.5 198.5q27 4 92.5 -84t38.5 -108 q-203 -172 -367 -258z" />
<glyph unicode="&#xd4;" horiz-adv-x="1685" d="M124 690.5q3 106.5 36 216t91 206.5t138 174t169 121t191.5 44t200.5 -53q267 -144 457 -328q78 -76 117 -179.5t38 -211t-35 -218t-92.5 -205.5t-140.5 -170t-176 -114t-204.5 -32.5t-217.5 67.5q-16 10 -58 32.5t-59.5 32t-52 31t-58.5 39t-57.5 43t-68.5 56t-74 69.5 q-76 72 -111.5 172.5t-32.5 207zM446 803q-80 -258 17 -445q47 -94 139 -149q207 -125 406 29q162 125 231 358q76 258 -29 442q-45 82 -123 133q-205 135 -405 -14q-162 -123 -236 -354zM530 1612q0 8 187.5 166.5t195.5 156.5q14 -4 184.5 -143t168.5 -150 q0 -10 -74 -70.5t-82 -55.5q-12 0 -67.5 53t-115 113.5t-61.5 62.5q-2 -2 -118.5 -111.5t-126.5 -113.5q-12 2 -50.5 43t-40.5 49z" />
<glyph unicode="&#xd5;" horiz-adv-x="1685" d="M124 690.5q3 106.5 36 216t91 206.5t138 174t169 121t191.5 44t200.5 -53q267 -144 457 -328q78 -76 117 -179.5t38 -211t-35 -218t-92.5 -205.5t-140.5 -170t-176 -114t-204.5 -32.5t-217.5 67.5q-16 10 -58 32.5t-59.5 32t-52 31t-58.5 39t-57.5 43t-68.5 56t-74 69.5 q-76 72 -111.5 172.5t-32.5 207zM446 803q-80 -258 17 -445q47 -94 139 -149q207 -125 406 29q162 125 231 358q76 258 -29 442q-45 82 -123 133q-205 135 -405 -14q-162 -123 -236 -354zM459 1706q4 16 122.5 97t155.5 77q29 -4 127.5 -96t118.5 -92q27 0 109 91t86 91 q10 -2 79.5 -75t71.5 -83q2 -8 -45 -56t-116.5 -96t-114.5 -48q-31 0 -137.5 90t-118.5 90q-37 -2 -117 -88t-86 -88q-14 4 -74.5 87t-60.5 99z" />
<glyph unicode="&#xd6;" horiz-adv-x="1685" d="M124 690.5q3 106.5 36 216t91 206.5t138 174t169 121t191.5 44t200.5 -53q267 -144 457 -328q78 -76 117 -179.5t38 -211t-35 -218t-92.5 -205.5t-140.5 -170t-176 -114t-204.5 -32.5t-217.5 67.5q-16 10 -58 32.5t-59.5 32t-52 31t-58.5 39t-57.5 43t-68.5 56t-74 69.5 q-76 72 -111.5 172.5t-32.5 207zM446 803q-80 -258 17 -445q47 -94 139 -149q207 -125 406 29q162 125 231 358q76 258 -29 442q-45 82 -123 133q-205 135 -405 -14q-162 -123 -236 -354zM594 1659q2 29 52 74t81 51q94 -43 131 -127q-27 -74 -131 -127q-86 39 -133 129z M956 1659q2 29 52.5 74t81.5 51q94 -43 131 -127q-27 -74 -131 -127q-86 39 -134 129z" />
<glyph unicode="&#xd7;" horiz-adv-x="1134" d="M127 1047l82 69l309 -295l299 324l170 -113l-319 -354l313 -297l-74 -82l-313 299l-277 -307l-176 119l303 331z" />
<glyph unicode="&#xd8;" horiz-adv-x="1685" d="M124 690.5q3 106.5 36 216t91 206.5t138 174t169 121t191.5 44t200.5 -53q143 -78 224 -135l100 129l170 -113l-109 -141q12 -12 36 -35t36 -33q78 -76 117 -179.5t38 -211t-35 -218t-92.5 -205.5t-140.5 -170t-176 -114t-204.5 -32.5t-217.5 67.5q-143 80 -161 90 l-121 -157l-176 118l127 164q-57 49 -97 88q-76 72 -111.5 172.5t-32.5 207zM412 562q4 -120 53 -210l633 813l-11 6q-106 72 -205.5 62t-186.5 -67.5t-151.5 -160t-100 -213t-31.5 -230.5zM614 203q98 -53 197.5 -45t178.5 67.5t145.5 150.5t97.5 200.5t36 219t-40 205.5z " />
<glyph unicode="&#xd9;" horiz-adv-x="1363" d="M92 714.5v148.5t1 147.5t1 136t1 113t1 75.5v31q0 -2 71 -22.5t140 -40.5l72 -21q-8 -1028 2 -1040q84 -90 216 -93.5t249 68.5t162 184v965l284 -84v-958q0 -117 -180 -251t-383 -134q-121 0 -299 122.5t-328 288.5q-2 2 -4 33t-3 80t-2 114.5t-1 137zM319 1712 q-27 20 39 108.5t93 84.5q55 -78 152 -199t130 -168l-47 -84q-164 86 -367 258z" />
<glyph unicode="&#xda;" horiz-adv-x="1363" d="M92 714.5v148.5t1 147.5t1 136t1 113t1 75.5v31q0 -2 71 -22.5t140 -40.5l72 -21q-8 -1028 2 -1040q84 -90 216 -93.5t249 68.5t162 184v965l284 -84v-958q0 -117 -180 -251t-383 -134q-121 0 -299 122.5t-328 288.5q-2 2 -4 33t-3 80t-2 114.5t-1 137zM537 1544 q33 47 130 168t152 199q27 4 92.5 -84t38.5 -109q-202 -172 -366 -258z" />
<glyph unicode="&#xdb;" horiz-adv-x="1363" d="M92 714.5v148.5t1 147.5t1 136t1 113t1 75.5v31q0 -2 71 -22.5t140 -40.5l72 -21q-8 -1028 2 -1040q84 -90 216 -93.5t249 68.5t162 184v965l284 -84v-958q0 -117 -180 -251t-383 -134q-121 0 -299 122.5t-328 288.5q-2 2 -4 33t-3 80t-2 114.5t-1 137zM285 1554 q0 8 187 167t196 157q14 -4 184 -143.5t168 -149.5q0 -10 -74 -70.5t-82 -56.5q-12 0 -67.5 53.5t-114.5 114t-61 62.5q-2 -2 -119 -112t-127 -114q-12 2 -50 43t-40 49z" />
<glyph unicode="&#xdc;" horiz-adv-x="1363" d="M92 714.5v148.5t1 147.5t1 136t1 113t1 75.5v31q0 -2 71 -22.5t140 -40.5l72 -21q-8 -1028 2 -1040q84 -90 216 -93.5t249 68.5t162 184v965l284 -84v-958q0 -117 -180 -251t-383 -134q-121 0 -299 122.5t-328 288.5q-2 2 -4 33t-3 80t-2 114.5t-1 137zM336 1587 q2 29 52 74t81 51q94 -43 131 -127q-27 -74 -131 -127q-86 39 -133 129zM698 1587q2 29 52.5 74t80.5 51q94 -43 132 -127q-28 -74 -132 -127q-86 39 -133 129z" />
<glyph unicode="&#xdd;" horiz-adv-x="1210" d="M0 1366l256 -59l352 -555l336 612l285 -59l-443 -805l5 -559l-287 59v563zM440 1538q33 47 130.5 168t152.5 199q27 4 92.5 -84t38.5 -109q-203 -172 -367 -258z" />
<glyph unicode="&#xde;" horiz-adv-x="1157" d="M129 -2v1456l256 -57v-223q254 84 477 -62q106 -70 167 -160t69 -177t-12.5 -175t-71.5 -158.5t-112.5 -123t-134.5 -74t-138 -4.5q-70 16 -244 88v-387zM385 440q242 -70 385 135q63 92 83.5 180.5t4.5 152t-62 102.5t-109.5 43t-144.5 -38t-157 -128v-447z" />
<glyph unicode="&#xdf;" horiz-adv-x="1200" d="M156 0q2 836 0 1051q0 100 44 176t108.5 111.5t136 53t127 13.5t79.5 -19q92 -59 223.5 -177.5t153.5 -188.5q41 -123 -205 -369q27 -16 77 -46t89 -53.5t58 -37.5q100 -80 113.5 -184.5t-40 -188.5t-152 -142t-202.5 -58q-78 0 -301 211l41 75q82 -57 159.5 -62t127 36 t76 98t9 128t-76.5 124q-35 31 -92.5 75t-96.5 74.5t-49 42.5q20 23 66.5 73t65 71.5t49 60.5t37.5 62.5t12.5 55.5t-10 57.5t-46.5 52.5q-33 29 -88 35t-108.5 -13.5t-91 -78t-37.5 -146.5l4 -1032z" />
<glyph unicode="&#xe0;" horiz-adv-x="1187" d="M121 389q0 63 86 116.5t210 83t220 46t164 22.5l2 56q2 98 -105 106q-98 6 -413 -88h-2l-2 -2h-2h-3l-2 -2h-2h-2l-2 -2h-2h-2l-2 -2h-2h-2h-2l-2 -2h-2h-2l-2 -2h-2l-111 186q143 37 318.5 70t220.5 31t180 -134.5t182 -201.5q16 -25 16.5 -165t-5 -320.5t-3.5 -243.5 l-253 59l2 104q-166 -166 -271 -165q-98 2 -249.5 186t-151.5 264zM346 1384q-27 20 39 108.5t92 84.5q55 -78 152.5 -199t130.5 -168l-47 -84q-164 86 -367 258zM348 205q18 -29 69.5 -37t155 27.5t224.5 126.5l2 180q-541 -158 -451 -297z" />
<glyph unicode="&#xe1;" horiz-adv-x="1187" d="M121 389q0 63 86 116.5t210 83t220 46t164 22.5l2 56q2 98 -105 106q-98 6 -413 -88h-2l-2 -2h-2h-3l-2 -2h-2h-2l-2 -2h-2h-2l-2 -2h-2h-2h-2l-2 -2h-2h-2l-2 -2h-2l-111 186q143 37 318.5 70t220.5 31t180 -134.5t182 -201.5q16 -25 16.5 -165t-5 -320.5t-3.5 -243.5 l-253 59l2 104q-166 -166 -271 -165q-98 2 -249.5 186t-151.5 264zM348 205q18 -29 69.5 -37t155 27.5t224.5 126.5l2 180q-541 -158 -451 -297zM539 1210q33 47 130 168t152 199q27 4 92.5 -84t38.5 -109q-202 -172 -366 -258z" />
<glyph unicode="&#xe2;" horiz-adv-x="1187" d="M121 389q0 63 86 116.5t210 83t220 46t164 22.5l2 56q2 98 -105 106q-98 6 -413 -88h-2l-2 -2h-2h-3l-2 -2h-2h-2l-2 -2h-2h-2l-2 -2h-2h-2h-2l-2 -2h-2h-2l-2 -2h-2l-111 186q143 37 318.5 70t220.5 31t180 -134.5t182 -201.5q16 -25 16.5 -165t-5 -320.5t-3.5 -243.5 l-253 59l2 104q-166 -166 -271 -165q-98 2 -249.5 186t-151.5 264zM283 1221q0 8 187 166.5t196 156.5q14 -4 184 -143t168 -150q0 -10 -74 -70.5t-82 -56.5q-12 0 -67.5 53.5t-114.5 114t-62 62.5q-2 -2 -118.5 -112t-126.5 -114q-12 2 -50 43t-40 50zM348 205 q18 -29 69.5 -37t155 27.5t224.5 126.5l2 180q-541 -158 -451 -297z" />
<glyph unicode="&#xe3;" horiz-adv-x="1187" d="M121 389q0 63 86 116.5t210 83t220 46t164 22.5l2 56q2 98 -105 106q-98 6 -413 -88h-2l-2 -2h-2h-3l-2 -2h-2h-2l-2 -2h-2h-2l-2 -2h-2h-2h-2l-2 -2h-2h-2l-2 -2h-2l-111 186q143 37 318.5 70t220.5 31t180 -134.5t182 -201.5q16 -25 16.5 -165t-5 -320.5t-3.5 -243.5 l-253 59l2 104q-166 -166 -271 -165q-98 2 -249.5 186t-151.5 264zM190 1294q4 16 123 97t156 77q29 -4 127 -96t119 -92q27 0 108.5 91t85.5 91q10 -2 80 -74.5t72 -82.5q2 -8 -45 -56.5t-117 -96.5t-115 -48q-31 0 -137 90t-119 90q-37 -2 -116.5 -88t-85.5 -88 q-14 4 -75 87t-61 99zM348 205q18 -29 69.5 -37t155 27.5t224.5 126.5l2 180q-541 -158 -451 -297z" />
<glyph unicode="&#xe4;" horiz-adv-x="1187" d="M121 389q0 63 86 116.5t210 83t220 46t164 22.5l2 56q2 98 -105 106q-98 6 -413 -88h-2l-2 -2h-2h-3l-2 -2h-2h-2l-2 -2h-2h-2l-2 -2h-2h-2h-2l-2 -2h-2h-2l-2 -2h-2l-111 186q143 37 318.5 70t220.5 31t180 -134.5t182 -201.5q16 -25 16.5 -165t-5 -320.5t-3.5 -243.5 l-253 59l2 104q-166 -166 -271 -165q-98 2 -249.5 186t-151.5 264zM324 1260q2 29 52 73.5t81 50.5q94 -43 131 -127q-27 -74 -131 -127q-86 39 -133 130zM348 205q18 -29 69.5 -37t155 27.5t224.5 126.5l2 180q-541 -158 -451 -297zM686 1260q2 29 52 73.5t81 50.5 q94 -43 131 -127q-27 -74 -131 -127q-86 39 -133 130z" />
<glyph unicode="&#xe5;" horiz-adv-x="1187" d="M121 389q0 63 86 116.5t210 83t220 46t164 22.5l2 56q2 98 -105 106q-98 6 -413 -88h-2l-2 -2h-2h-3l-2 -2h-2h-2l-2 -2h-2h-2l-2 -2h-2h-2h-2l-2 -2h-2h-2l-2 -2h-2l-111 186q143 37 318.5 70t220.5 31t180 -134.5t182 -201.5q16 -25 16.5 -165t-5 -320.5t-3.5 -243.5 l-253 59l2 104q-166 -166 -271 -165q-98 2 -249.5 186t-151.5 264zM348 205q18 -29 69.5 -37t155 27.5t224.5 126.5l2 180q-541 -158 -451 -297zM375 1322q-17 67 7 123t65.5 105t98 61.5t109.5 -9.5q99 -52 156 -97q45 -39 56.5 -100.5t-9 -119.5t-62.5 -106.5 t-104.5 -59.5t-132.5 20q-68 35 -108 69q-59 47 -76 114zM508 1347.5q-4 -69.5 55 -112.5q37 -16 72 -5t58.5 45t35.5 72.5t1 78t-44 59.5q-57 35 -115.5 -16.5t-62.5 -121z" />
<glyph unicode="&#xe6;" horiz-adv-x="1884" d="M121 389q0 68 101.5 125t234.5 86t233.5 44t130.5 15l2 54q0 43 -18.5 69.5t-62.5 31.5t-87 4t-121.5 -19.5t-134 -33.5t-153.5 -46l-111 186q143 37 318.5 70t220.5 31q61 -6 250 -207q133 203 338 202q82 0 242.5 -105t267.5 -206q-2 -6 -168 -126t-330 -236l-166 -115 q14 -20 54 -53t71 -39q84 -16 201.5 41t228.5 149l41 -41l78 -86l41 -41q-178 -131 -301 -175t-244 1q-109 41 -234 144q-4 -106 0 -172l-233 59l2 127q-178 -188 -291 -188q-98 2 -249.5 186t-151.5 264zM348 205q104 -152 469 133l2 170q-289 -63 -395 -125 q-144 -80 -76 -178zM1053 408l508 325q-160 111 -236 111q-94 0 -174 -115t-98 -256v-65z" />
<glyph unicode="&#xe7;" horiz-adv-x="1095" d="M95.5 449.5q-9.5 140.5 49 261t173 205.5t249.5 85q63 0 410 -161l-74 -107q-31 10 -71.5 25.5t-63.5 22.5t-49.5 15.5t-44 11.5t-31.5 3q-133 -6 -225 -172q-88 -160 -68 -322q18 -162 144 -180q145 -20 389 168l39 -45q41 -45 79 -92l39 -45q-129 -96 -222 -140 t-183 -38l-31 -109q16 2 40 7t37 8.5t31.5 5.5t29 3t20.5 0t17 -5.5t12 -10.5q20 -31 24 -85t-8 -109.5t-50 -99.5t-98 -50q-18 -2 -54 1t-104.5 21.5t-133.5 49.5l22 37q12 -2 39 -6t37 -5t31.5 0t48.5 7q43 8 71.5 69.5t-2.5 85.5q-6 4 -48 6.5t-83 2.5h-39l39 221 q-164 80 -286 217q-92 102 -101.5 242.5z" />
<glyph unicode="&#xe8;" horiz-adv-x="1153" d="M108.5 449.5q-14.5 140.5 36 261t156 205.5t229.5 85q82 0 243 -105t267 -206q-2 -6 -162.5 -126t-320.5 -236l-162 -117q57 -70 129 -86t151 19.5t132 71.5t125 95l39 -41l82 -86l39 -41q-178 -131 -301 -175t-244 1q-176 68 -332 238q-92 102 -106.5 242.5zM270 1384 q-27 20 39 108.5t92 84.5q55 -78 152.5 -199t130.5 -168l-47 -84q-164 86 -367 258zM348 408l465 317q-147 94 -250.5 69.5t-159 -127.5t-55.5 -259z" />
<glyph unicode="&#xe9;" horiz-adv-x="1142" d="M98.5 449.5q-14.5 140.5 35.5 261t155.5 205.5t230.5 85q82 0 243 -105t267 -206q-2 -6 -162.5 -126t-322.5 -236l-160 -117q57 -70 129 -86t150.5 19.5t132 71.5t125.5 95l41 -41q39 -43 77 -86l41 -41q-178 -131 -301 -175t-243 1q-176 68 -332 238 q-92 102 -106.5 242.5zM338 408l465 317q-147 94 -250.5 69.5t-159 -127.5t-55.5 -259zM451 1210q33 47 130 168t152 199q27 4 92.5 -84t38.5 -109q-202 -172 -366 -258z" />
<glyph unicode="&#xea;" horiz-adv-x="1142" d="M98.5 449.5q-14.5 140.5 35.5 261t155.5 205.5t230.5 85q82 0 243 -105t267 -206q-2 -6 -162.5 -126t-322.5 -236l-160 -117q57 -70 129 -86t150.5 19.5t132 71.5t125.5 95l41 -41q39 -43 77 -86l41 -41q-178 -131 -301 -175t-243 1q-176 68 -332 238 q-92 102 -106.5 242.5zM211 1221q0 8 187.5 166.5t195.5 156.5q14 -4 184 -143t168 -150q0 -10 -73.5 -70.5t-81.5 -56.5q-12 0 -67.5 53.5t-115 114t-61.5 62.5q-2 -2 -119 -112t-127 -114q-12 2 -50 43t-40 50zM338 408l465 317q-147 94 -250.5 69.5t-159 -127.5 t-55.5 -259z" />
<glyph unicode="&#xeb;" horiz-adv-x="1142" d="M98.5 449.5q-14.5 140.5 35.5 261t155.5 205.5t230.5 85q82 0 243 -105t267 -206q-2 -6 -162.5 -126t-322.5 -236l-160 -117q57 -70 129 -86t150.5 19.5t132 71.5t125.5 95l41 -41q39 -43 77 -86l41 -41q-178 -131 -301 -175t-243 1q-176 68 -332 238 q-92 102 -106.5 242.5zM266 1260q2 29 52.5 73.5t80.5 50.5q94 -43 131 -127q-27 -74 -131 -127q-86 39 -133 130zM338 408l465 317q-147 94 -250.5 69.5t-159 -127.5t-55.5 -259zM629 1260q2 29 52 73.5t81 50.5q94 -43 131 -127q-27 -74 -131 -127q-86 39 -133 130z" />
<glyph unicode="&#xec;" horiz-adv-x="493" d="M10 1384q-27 20 39 108.5t92 84.5q55 -78 152.5 -199t130.5 -168l-47 -84q-164 86 -367 258zM129 -2v981l236 -57v-981z" />
<glyph unicode="&#xed;" horiz-adv-x="493" d="M53 1210q33 47 130.5 168t152.5 199q27 4 92.5 -84t38.5 -109q-203 -172 -367 -258zM129 -2v981l236 -57v-981z" />
<glyph unicode="&#xee;" horiz-adv-x="493" d="M-106 1221q0 8 187 166.5t195 156.5q14 -4 184.5 -143t168.5 -150q0 -10 -74 -70.5t-82 -56.5q-12 0 -67.5 53.5t-115 114t-61.5 62.5q-2 -2 -118.5 -112t-126.5 -114q-12 2 -50 43t-40 50zM129 -2v981l236 -57v-981z" />
<glyph unicode="&#xef;" horiz-adv-x="493" d="M-72 1260q2 29 52.5 73.5t80.5 50.5q94 -43 132 -127q-28 -74 -132 -127q-86 39 -133 130zM129 -2v981l236 -57v-981zM291 1260q2 29 52 73.5t81 50.5q94 -43 131 -127q-27 -74 -131 -127q-86 39 -133 130z" />
<glyph unicode="&#xf0;" horiz-adv-x="1236" d="M156 348q-43 82 41 231.5t211 256t194 84.5q82 -29 236 -125q-35 133 -109 260l-133 -45l-143 118l180 58q-74 80 -137 129l194 139q109 -80 189 -188l135 45l137 -113l-184 -63q96 -168 138 -359.5t25 -363.5q-20 -209 -126.5 -339t-286.5 -130q-150 0 -323 138 t-238 267zM397 354q2 -150 97 -200q4 -2 6 -4q135 -66 245.5 28.5t122.5 323.5q4 76 -6 157q-225 104 -364 -43q-100 -104 -101 -262z" />
<glyph unicode="&#xf1;" horiz-adv-x="1222" d="M129 -2v981l266 -57v-84q182 170 320 161q66 -4 230.5 -162.5t174.5 -215.5q8 -53 8 -680l-254 57q12 702 -10 743q-37 70 -122 42.5t-176 -99.5t-171 -168v-575zM178 1274q4 16 123 97t156 77q29 -4 127 -96t118 -92q27 0 109 91t86 91q10 -2 80 -75t72 -83 q2 -8 -45.5 -56t-117 -96.5t-114.5 -48.5q-31 0 -137.5 90.5t-118.5 90.5q-37 -2 -117 -88.5t-86 -88.5q-14 4 -74.5 87t-60.5 100z" />
<glyph unicode="&#xf2;" horiz-adv-x="1208" d="M93 506q3 90 35 180t92.5 155.5t132 111.5t154.5 48.5t161 -34.5q198 -105 317 -211q59 -53 92 -128t38 -153t-14.5 -157.5t-58 -149.5t-97 -124t-128 -82t-154.5 -21.5t-174 53.5q-115 61 -225 156q-88 76 -131 171t-40 185zM338 471q-45 -195 70 -293q14 -12 30 -22 q82 -45 169 -20.5t151.5 108.5t101.5 179t18.5 194.5t-98.5 154.5q-135 92 -280 -29q-121 -102 -162 -272zM414 1384q-27 20 38.5 108.5t92.5 84.5q55 -78 152 -199t130 -168l-47 -84q-164 86 -366 258z" />
<glyph unicode="&#xf3;" horiz-adv-x="1208" d="M93 506q3 90 35 180t92.5 155.5t132 111.5t154.5 48.5t161 -34.5q198 -105 317 -211q59 -53 92 -128t38 -153t-14.5 -157.5t-58 -149.5t-97 -124t-128 -82t-154.5 -21.5t-174 53.5q-115 61 -225 156q-88 76 -131 171t-40 185zM338 471q-45 -195 70 -293q14 -12 30 -22 q82 -45 169 -20.5t151.5 108.5t101.5 179t18.5 194.5t-98.5 154.5q-135 92 -280 -29q-121 -102 -162 -272zM575 1210q33 47 130.5 168t152.5 199q27 4 92.5 -84t38.5 -109q-202 -172 -366 -258z" />
<glyph unicode="&#xf4;" horiz-adv-x="1208" d="M93 506q3 90 35 180t92.5 155.5t132 111.5t154.5 48.5t161 -34.5q198 -105 317 -211q59 -53 92 -128t38 -153t-14.5 -157.5t-58 -149.5t-97 -124t-128 -82t-154.5 -21.5t-174 53.5q-115 61 -225 156q-88 76 -131 171t-40 185zM295 1221q0 8 187.5 166.5t195.5 156.5 q14 -4 184 -143t168 -150q0 -10 -73.5 -70.5t-82.5 -56.5q-12 0 -67 53.5t-114.5 114t-61.5 62.5q-2 -2 -119 -112t-127 -114q-12 2 -50 43t-40 50zM338 471q-45 -195 70 -293q14 -12 30 -22q82 -45 169 -20.5t151.5 108.5t101.5 179t18.5 194.5t-98.5 154.5 q-135 92 -280 -29q-121 -102 -162 -272z" />
<glyph unicode="&#xf5;" horiz-adv-x="1208" d="M93 506q3 90 35 180t92.5 155.5t132 111.5t154.5 48.5t161 -34.5q198 -105 317 -211q59 -53 92 -128t38 -153t-14.5 -157.5t-58 -149.5t-97 -124t-128 -82t-154.5 -21.5t-174 53.5q-115 61 -225 156q-88 76 -131 171t-40 185zM199 1294q4 16 122.5 97t155.5 77 q29 -4 127 -96t119 -92q27 0 108.5 91t86.5 91q10 -2 79.5 -74.5t71.5 -82.5q2 -8 -45 -56.5t-116.5 -96.5t-114.5 -48q-31 0 -137.5 90t-118.5 90q-37 -2 -117 -88t-86 -88q-14 4 -74.5 87t-60.5 99zM338 471q-45 -195 70 -293q14 -12 30 -22q82 -45 169 -20.5t151.5 108.5 t101.5 179t18.5 194.5t-98.5 154.5q-135 92 -280 -29q-121 -102 -162 -272z" />
<glyph unicode="&#xf6;" horiz-adv-x="1208" d="M93 506q3 90 35 180t92.5 155.5t132 111.5t154.5 48.5t161 -34.5q198 -105 317 -211q59 -53 92 -128t38 -153t-14.5 -157.5t-58 -149.5t-97 -124t-128 -82t-154.5 -21.5t-174 53.5q-115 61 -225 156q-88 76 -131 171t-40 185zM330 1260q2 29 52 73.5t81 50.5 q94 -43 131 -127q-27 -74 -131 -127q-86 39 -133 130zM338 471q-45 -195 70 -293q14 -12 30 -22q82 -45 169 -20.5t151.5 108.5t101.5 179t18.5 194.5t-98.5 154.5q-135 92 -280 -29q-121 -102 -162 -272zM692 1260q2 29 52.5 73.5t80.5 50.5q94 -43 131 -127 q-27 -74 -131 -127q-86 39 -133 130z" />
<glyph unicode="&#xf7;" horiz-adv-x="1228" d="M61 733h928l64 -166h-928zM397 985q4 33 61.5 84t92.5 59q104 -47 154 -145q-35 -88 -152 -147q-104 49 -156 149zM410 322q4 33 61 84t92 59q104 -47 154 -146q-35 -88 -152 -147q-104 49 -155 150z" />
<glyph unicode="&#xf8;" horiz-adv-x="1208" d="M94 59l121 138q-70 76 -99.5 169t-19.5 178t45 170t94.5 145.5t129 101t149.5 40.5t154 -34q88 -47 147 -84l117 133l170 -113l-123 -141l6 -6q59 -53 92 -128t38 -153t-14.5 -157.5t-58 -149.5t-97 -124t-128 -82t-154.5 -21.5t-174 53.5q-72 39 -114 67l-105 -120z M330 328l409 467q-102 43 -206.5 -27t-161.5 -197.5t-41 -242.5zM451 150q106 -57 220.5 16.5t174 213.5t28.5 259z" />
<glyph unicode="&#xf9;" horiz-adv-x="1212" d="M125 977l254 -57q-10 -705 10 -748q41 -57 124 -36.5t184.5 116.5t150.5 211v514l256 -57v-981l-256 57v102q-164 -168 -303 -157q-66 4 -234 151.5t-178 204.5q-8 53 -8 680zM328 1384q-27 20 38.5 108.5t92.5 84.5q55 -78 152 -199t130 -168l-47 -84q-164 86 -366 258z " />
<glyph unicode="&#xfa;" horiz-adv-x="1212" d="M125 977l254 -57q-10 -705 10 -748q41 -57 124 -36.5t184.5 116.5t150.5 211v514l256 -57v-981l-256 57v102q-164 -168 -303 -157q-66 4 -234 151.5t-178 204.5q-8 53 -8 680zM428 1210q33 47 130 168t153 199q27 4 92 -84t39 -109q-203 -172 -367 -258z" />
<glyph unicode="&#xfb;" horiz-adv-x="1212" d="M125 977l254 -57q-10 -705 10 -748q41 -57 124 -36.5t184.5 116.5t150.5 211v514l256 -57v-981l-256 57v102q-164 -168 -303 -157q-66 4 -234 151.5t-178 204.5q-8 53 -8 680zM233 1221q0 8 187.5 166.5t195.5 156.5q14 -4 184.5 -143t168.5 -150q0 -10 -74 -70.5 t-82 -56.5q-12 0 -67.5 53.5t-115 114t-61.5 62.5q-2 -2 -118.5 -112t-126.5 -114q-12 2 -50 43t-41 50z" />
<glyph unicode="&#xfc;" horiz-adv-x="1212" d="M125 977l254 -57q-10 -705 10 -748q41 -57 124 -36.5t184.5 116.5t150.5 211v514l256 -57v-981l-256 57v102q-164 -168 -303 -157q-66 4 -234 151.5t-178 204.5q-8 53 -8 680zM279 1260q2 29 52 73.5t81 50.5q94 -43 131 -127q-27 -74 -131 -127q-86 39 -133 130z M641 1260q2 29 52 73.5t81 50.5q94 -43 131 -127q-27 -74 -131 -127q-86 39 -133 130z" />
<glyph unicode="&#xfd;" horiz-adv-x="1134" d="M119 983l254 -57q-12 -709 14 -748q61 -74 173 -5t196 212v594l256 -57v-1049q0 -121 -104.5 -225.5t-230.5 -148.5t-196 -13q-27 12 -81 43t-135 79t-122 73l54 79q123 -72 163 -92q150 -74 273 7t123 319v76q-145 -137 -256 -129q-66 4 -212.5 150.5t-156.5 205.5 q-12 82 -12 686zM395 1210q33 47 130.5 168t152.5 199q27 4 92.5 -84t38.5 -109q-203 -172 -367 -258z" />
<glyph unicode="&#xfe;" horiz-adv-x="1077" d="M129 -465v1878l256 -57v-463q233 90 446 -47q123 -82 180.5 -190.5t50.5 -212t-55.5 -203t-122 -170t-160.5 -105.5t-163 -14q-47 12 -176 76v-549zM385 139q196 -49 358 162q59 80 84 166t16 153.5t-48 110.5t-97.5 50t-141.5 -42t-171 -153v-447z" />
<glyph unicode="&#xff;" horiz-adv-x="1134" d="M119 983l254 -57q-12 -709 14 -748q61 -74 173 -5t196 212v594l256 -57v-1049q0 -121 -104.5 -225.5t-230.5 -148.5t-196 -13q-27 12 -81 43t-135 79t-122 73l54 79q123 -72 163 -92q150 -74 273 7t123 319v76q-145 -137 -256 -129q-66 4 -212.5 150.5t-156.5 205.5 q-12 82 -12 686zM242 1260q2 29 52 73.5t81 50.5q94 -43 131 -127q-27 -74 -131 -127q-86 39 -133 130zM604 1260q2 29 52.5 73.5t80.5 50.5q94 -43 131 -127q-27 -74 -131 -127q-86 39 -133 130z" />
<glyph unicode="&#x152;" horiz-adv-x="2437" d="M157 660.5q-3 91.5 14 188.5t58 186t94.5 169t123 136.5t143.5 89t157.5 26.5t163.5 -51q188 -113 303 -213v174h875l164 -184h-776v-394h530l164 -184h-692v-420h692l164 -184h-854l-267 59v41q-76 -70 -159.5 -103.5t-182 -26.5t-192.5 65q-16 10 -62.5 36.5t-62.5 38 t-55 37t-64.5 48t-65.5 59.5t-81 80q-61 63 -95 149t-37 177.5zM453 788q-66 -264 36 -442q41 -70 105 -113q182 -125 369 21q154 123 221 350q76 262 -27 447q-43 78 -119 129q-193 131 -374 -25q-152 -127 -211 -367z" />
<glyph unicode="&#x153;" horiz-adv-x="2025" d="M114 506q3 90 34.5 180t92 155.5t132 111.5t154.5 48.5t161 -34.5q197 -106 299 -197q59 109 153.5 175.5t207.5 66.5q82 0 242.5 -105.5t267.5 -206.5q-2 -6 -168 -125.5t-330 -234.5l-166 -117q14 -20 54 -53t71 -39q84 -16 201.5 41t228.5 150l41 -43l78 -82l41 -43 q-178 -131 -301 -175.5t-244 1.5q-150 55 -295 198q-53 -100 -136 -161.5t-191.5 -75t-231.5 52.5q-115 61 -225 156q-88 76 -131 171t-40 185zM342 485q-45 -197 72 -303q23 -20 49 -37q106 -53 203.5 -12t168 144.5t87.5 220.5q-2 25 2 75q-11 137 -117 207 q-150 96 -301 -24q-125 -102 -164 -271zM1135 416l512 327q-160 111 -236 111q-100 0 -182 -125t-92 -274q0 -25 -2 -39z" />
<glyph unicode="&#x178;" horiz-adv-x="1210" d="M0 1366l256 -59l352 -555l336 612l285 -59l-443 -805l5 -559l-287 59v563zM270 1638q2 29 52.5 74t80.5 51q94 -43 132 -127q-28 -74 -132 -127q-86 39 -133 129zM633 1638q2 29 52 74t81 51q94 -43 131 -127q-27 -74 -131 -127q-86 39 -133 129z" />
<glyph unicode="&#x2c6;" horiz-adv-x="724" d="M-18 1221q0 8 187 166.5t196 156.5q14 -4 184 -143t168 -150q0 -10 -74 -70.5t-82 -56.5q-12 0 -67.5 53.5t-115 114t-61.5 62.5q-2 -2 -118.5 -112t-126.5 -114q-12 2 -50 43t-40 50z" />
<glyph unicode="&#x2dc;" horiz-adv-x="847" d="M-4 1294q4 16 122.5 97t155.5 77q29 -4 127.5 -96t118.5 -92q27 0 109 91t86 91q10 -2 79.5 -74.5t71.5 -82.5q2 -8 -45 -56.5t-116.5 -96.5t-114.5 -48q-31 0 -137.5 90t-118.5 90q-37 -2 -117 -88t-86 -88q-14 4 -74.5 87t-60.5 99z" />
<glyph unicode="&#x2000;" horiz-adv-x="987" />
<glyph unicode="&#x2001;" horiz-adv-x="1974" />
<glyph unicode="&#x2002;" horiz-adv-x="987" />
<glyph unicode="&#x2003;" horiz-adv-x="1974" />
<glyph unicode="&#x2004;" horiz-adv-x="658" />
<glyph unicode="&#x2005;" horiz-adv-x="493" />
<glyph unicode="&#x2006;" horiz-adv-x="329" />
<glyph unicode="&#x2007;" horiz-adv-x="329" />
<glyph unicode="&#x2008;" horiz-adv-x="246" />
<glyph unicode="&#x2009;" horiz-adv-x="394" />
<glyph unicode="&#x200a;" horiz-adv-x="109" />
<glyph unicode="&#x2010;" horiz-adv-x="970" d="M61 733h785l63 -166h-784z" />
<glyph unicode="&#x2011;" horiz-adv-x="970" d="M61 733h785l63 -166h-784z" />
<glyph unicode="&#x2012;" horiz-adv-x="970" d="M61 733h785l63 -166h-784z" />
<glyph unicode="&#x2013;" horiz-adv-x="1155" d="M61 733h969l64 -166h-969z" />
<glyph unicode="&#x2014;" horiz-adv-x="1853" d="M61 733h1668l63 -166h-1667z" />
<glyph unicode="&#x2018;" horiz-adv-x="524" d="M12 1276q12 76 71.5 203t104.5 178l84 -55q-51 -164 -45 -238q63 -55 92 -113q-4 -33 -61 -84t-92 -59q-55 27 -105.5 77t-48.5 91z" />
<glyph unicode="&#x2019;" horiz-adv-x="524" d="M205 1513q4 33 61.5 84.5t91.5 59.5q55 -27 105.5 -77t48.5 -91q-12 -76 -71.5 -203t-104.5 -178l-84 55q51 164 45 238q-63 55 -92 112z" />
<glyph unicode="&#x201a;" horiz-adv-x="708" d="M135 104q4 33 61.5 84.5t92.5 59.5q55 -27 105 -77t48 -91q-12 -76 -71.5 -203t-104.5 -178l-84 55q51 164 45 238q-63 55 -92 112z" />
<glyph unicode="&#x201c;" horiz-adv-x="921" d="M12 1276q12 76 71.5 203t104.5 178l84 -55q-51 -164 -45 -238q63 -55 92 -113q-4 -33 -61 -84t-92 -59q-55 27 -105.5 77t-48.5 91zM410 1276q12 76 71.5 203t104.5 178l84 -55q-51 -164 -45 -238q63 -55 92 -113q-4 -33 -61.5 -84t-92.5 -59q-55 27 -105 77t-48 91z" />
<glyph unicode="&#x201d;" horiz-adv-x="921" d="M205 1513q4 33 61.5 84.5t91.5 59.5q55 -27 105.5 -77t48.5 -91q-12 -76 -71.5 -203t-104.5 -178l-84 55q51 164 45 238q-63 55 -92 112zM602 1513q4 33 61.5 84.5t92.5 59.5q55 -27 105 -77t48 -91q-12 -76 -71.5 -203t-104.5 -178l-84 55q51 164 45 238q-63 55 -92 112 z" />
<glyph unicode="&#x201e;" horiz-adv-x="1081" d="M139 113q4 33 61.5 84t92.5 59q55 -27 105.5 -77t47.5 -91q-12 -76 -71.5 -203t-104.5 -178l-84 55q51 164 45 238q-63 55 -92 113zM537 113q4 33 61 84t92 59q55 -27 105.5 -77t48.5 -91q-12 -76 -71.5 -203t-104.5 -178l-84 55q51 164 45 238q-63 55 -92 113z" />
<glyph unicode="&#x2022;" horiz-adv-x="638" d="M82 592q8 51 96 130t141 91q168 -74 238 -225q-47 -132 -233 -230q-166 80 -242 234z" />
<glyph unicode="&#x2026;" horiz-adv-x="1628" d="M135 104q4 33 61.5 84.5t92.5 59.5q104 -47 153 -146q-34 -88 -151 -147q-104 49 -156 149zM686 104q4 33 61.5 84.5t92.5 59.5q104 -47 153 -146q-34 -88 -151 -147q-104 49 -156 149zM1229 104q4 33 61.5 84.5t91.5 59.5q104 -47 154 -146q-35 -88 -152 -147 q-104 49 -155 149z" />
<glyph unicode="&#x202f;" horiz-adv-x="394" />
<glyph unicode="&#x2039;" horiz-adv-x="796" d="M41 584l444 417l189 -139l-373 -325l358 -293l-96 -107z" />
<glyph unicode="&#x203a;" horiz-adv-x="796" d="M123 862l188 139l445 -417l-523 -447l-96 107l359 293z" />
<glyph unicode="&#x205f;" horiz-adv-x="493" />
<glyph unicode="&#x20ac;" horiz-adv-x="1200" d="M59 858h220q78 242 244.5 392.5t295.5 88.5q199 -96 297 -151q-2 -2 -5 -7t-11 -16.5t-15.5 -23t-15.5 -21.5t-12 -16l-6 -6q-145 70 -230 57q-86 -12 -157.5 -92t-120.5 -205h383l61 -149h-491q-12 -57 -19 -117h469l62 -150h-535q14 -213 123 -286q61 -47 163.5 -40 t198.5 77q2 -2 79 -84t77 -84q-82 -55 -207 -74t-225 18q-49 20 -136 80t-143 121q-109 117 -147 272h-115l-61 150h158q0 59 6 117h-123z" />
<glyph unicode="&#x2122;" horiz-adv-x="1492" d="M82 1427h475l78 -88h-205l2 -471l-129 29v442h-143zM694 897v530l127 -41l174 -362l195 403l2 -2v2l127 -41l2 -518l-129 29v233l-121 -241l-127 29l-123 266v-316z" />
<glyph unicode="&#x25fc;" horiz-adv-x="983" d="M0 0v983h983v-983h-983z" />
</font>
</defs>
</svg>
